<?xml version="1.0" encoding="UTF-8"?>
<svg width="488" height="286" fill="none" version="1.1" viewBox="0 0 488 286" xmlns="http://www.w3.org/2000/svg">
 <mask x="47" y="8" width="394" height="250" mask-type="alpha" maskUnits="userSpaceOnUse">
  <path d="m440.67 8.7626h-393.34v248.7h393.34v-248.7z" fill="#36393F"/>
 </mask>
 <path d="m466.54 0.24988h-446.25c-8.4931 0-15.378 6.0939-15.378 13.611v258.25c0 7.5173 6.8851 13.611 15.378 13.611h446.25c8.4924 0 15.378-6.0939 15.378-13.611v-258.25c0-7.5173-6.8856-13.611-15.378-13.611z" fill="#242a45" stroke-width="1.0927"/>
 <path d="m466.54 2.755c3.3366-8.24e-5 6.5376 1.1673 8.9054 3.2478 2.3691 2.0804 3.7114 4.9051 3.7369 7.8583v258.19c0 2.9672-1.333 5.8129-3.7033 7.9115-2.3714 2.0985-5.5862 3.278-8.9391 3.278h-446.16c-3.3529 0-6.5685-1.1795-8.9394-3.278-2.3708-2.0985-3.7028-4.9443-3.7028-7.9115v-258.19c0.024945-2.9532 1.3678-5.7779 3.7361-7.8583 2.3681-2.0804 5.5695-3.2478 8.9061-3.2478zm0-2.5051h-446.16c-4.0873-6.725e-5 -8.0085 1.4313-10.908 3.9815-2.8989 2.5502-4.5401 6.0121-4.565 9.6297v258.19c0 3.632 1.6302 7.1149 4.5318 9.6827 2.9017 2.5689 6.8371 4.0118 10.941 4.0118h446.16c4.1035 0 8.0388-1.4429 10.94-4.0118 2.9016-2.5679 4.5316-6.0507 4.5316-9.6827v-258.19c-0.0243-3.6176-1.666-7.0795-4.5652-9.6297-2.8981-2.5502-6.8195-3.9816-10.907-3.9815z" fill="#8177ff" stroke-width="1.0927"/>
 <g transform="matrix(1.0292 0 0 1.0292 201.25 .24988)">
  <path d="m250.52 14.41h-182.43c-3.472 0-6.2867 5.1332-6.2867 11.465v217.54c0 6.3321 2.8147 11.465 6.2867 11.465h182.43c3.4717 0 6.2866-5.1332 6.2866-11.465v-217.54c0-6.3321-2.8149-11.465-6.2866-11.465z" fill="#fff" stroke-width=".64123"/>
  <path d="m78.732 51.621h25.947c4.3501 0 7.8522 3.5355 7.8522 7.9272s-3.5021 7.9272-7.8522 7.9272h-25.947c-4.3501 0-7.8522-3.5355-7.8522-7.9272s3.5021-7.9272 7.8522-7.9272z" fill="#1a1a1a" stroke-width="3.678"/>
  <path d="m75.832 99.209h43.248c2.7436 0 4.9523 3.5355 4.9523 7.9272s-2.2087 7.9272-4.9523 7.9272h-43.248c-2.7436 0-4.9523-3.5355-4.9523-7.9272s2.2087-7.9272 4.9523-7.9272z" fill="#1a1a1a" stroke-width="4.1549"/>
  <g fill="#fff">
   <path d="m74.444 121.63h172.82c1.8246 0 3.2936 1.4689 3.2936 3.2936v8.7244c0 1.8246-1.4689 3.2936-3.2936 3.2936h-172.82c-1.8246 0-3.2936-1.4689-3.2936-3.2936v-8.7244c0-1.8246 1.4689-3.2936 3.2936-3.2936z" stroke="#000" stroke-width="1.0649"/>
   <path d="m251.12 74.046h0.29091c0.31069 0 0.56082 0.05399 0.56082 0.12105v3.3645c0 0.06706-0.25013 0.12105-0.56082 0.12105h-0.29091c-0.3107 0-0.56083-0.05399-0.56083-0.12105v-3.3645c0-0.06706 0.25013-0.12105 0.56083-0.12105z" stroke="#fff" stroke-width=".5221"/>
   <g stroke="#000">
    <path d="m74.444 73.649h172.82c1.8246 0 3.2936 1.4689 3.2936 3.2936v8.7244c0 1.8246-1.4689 3.2936-3.2936 3.2936h-172.82c-1.8246 0-3.2936-1.4689-3.2936-3.2936v-8.7244c0-1.8246 1.4689-3.2936 3.2936-3.2936z" stroke-width="1.0649"/>
    <path d="m75.15 165.72h5.7173c1.0318 0 1.8624 0.83062 1.8624 1.8624v4.9333c0 1.0318-0.83062 1.8624-1.8624 1.8624h-5.7173c-1.0318 0-1.8624-0.83061-1.8624-1.8624v-4.9333c0-1.0318 0.83061-1.8624 1.8624-1.8624z" stroke-width=".1837"/>
    <path d="m95.326 165.72h5.7173c1.0318 0 1.8624 0.83062 1.8624 1.8624v4.9333c0 1.0318-0.83061 1.8624-1.8624 1.8624h-5.7173c-1.0318 0-1.8624-0.83061-1.8624-1.8624v-4.9333c0-1.0318 0.83061-1.8624 1.8624-1.8624z" stroke-width=".1837"/>
   </g>
  </g>
  <g stroke="#000" stroke-width=".1837">
   <path d="m116.44 165.72h5.7173c1.0318 0 1.8624 0.83062 1.8624 1.8624v4.9333c0 1.0318-0.83062 1.8624-1.8624 1.8624h-5.7173c-1.0318 0-1.8624-0.83061-1.8624-1.8624v-4.9333c0-1.0318 0.83061-1.8624 1.8624-1.8624z" fill-opacity="0"/>
   <path d="m137.56 165.72h5.7173c1.0318 0 1.8624 0.83062 1.8624 1.8624v4.9333c0 1.0318-0.83062 1.8624-1.8624 1.8624h-5.7173c-1.0318 0-1.8624-0.83061-1.8624-1.8624v-4.9333c0-1.0318 0.83061-1.8624 1.8624-1.8624z" fill-opacity="0"/>
   <path d="m157.61 165.72h5.7173c1.0318 0 1.8624 0.83062 1.8624 1.8624v4.9333c0 1.0318-0.83061 1.8624-1.8624 1.8624h-5.7173c-1.0318 0-1.8624-0.83061-1.8624-1.8624v-4.9333c0-1.0318 0.83062-1.8624 1.8624-1.8624z" fill="#257cfd" fill-opacity=".0052604"/>
  </g>
  <path d="m74.865 180.78h34.803c2.2079 0 3.9853 3.5355 3.9853 7.9272 0 4.3917-1.7774 7.9272-3.9853 7.9272h-34.803c-2.2079 0-3.9853-3.5355-3.9853-7.9272 0-4.3916 1.7774-7.9272 3.9853-7.9272z" fill="#1a1a1a" stroke-width="3.7272"/>
  <path d="m77.617 203.55h0.78406c2.3983 0 4.329 1.9307 4.329 4.329 0 2.3983-1.9307 4.329-4.329 4.329h-0.78406c-2.3983 0-4.329-1.9307-4.329-4.329 0-2.3983 1.9307-4.329 4.329-4.329z" fill="#fff" stroke="#000" stroke-width=".1837"/>
  <path d="m87.692 204.45h14.135c1.8213 0 3.2876 1.3787 3.2876 3.0912v0.66704c0 1.7125-1.4663 3.0912-3.2876 3.0912h-14.135c-1.8213 0-3.2876-1.3787-3.2876-3.0912v-0.66704c0-1.7125 1.4663-3.0912 3.2876-3.0912z" fill="#1a1a1a" stroke-width="1.7047"/>
  <path d="m114.51 203.55h0.78406c2.3983 0 4.329 1.9307 4.329 4.329 0 2.3983-1.9307 4.329-4.329 4.329h-0.78406c-2.3983 0-4.329-1.9307-4.329-4.329 0-2.3983 1.9307-4.329 4.329-4.329z" fill="#fff" stroke="#000" stroke-width=".1837"/>
  <path d="m124.59 204.45h14.135c1.8213 0 3.2876 1.3787 3.2876 3.0912v0.66704c0 1.7125-1.4663 3.0912-3.2876 3.0912h-14.135c-1.8213 0-3.2876-1.3787-3.2876-3.0912v-0.66704c0-1.7125 1.4663-3.0912 3.2876-3.0912z" fill="#1a1a1a" stroke-width="1.7047"/>
  <path d="m73.57 233.27h37.392c1.4906 0 2.6906 1.2 2.6906 2.6906v10.473c0 1.4906-1.2 2.6906-2.6906 2.6906h-37.392c-1.4906 0-2.6906-1.2-2.6906-2.6906v-10.473c0-1.4906 1.2-2.6906 2.6906-2.6906z" fill="#257cfd" stroke-width="3.7272"/>
  <path d="m75.15 218.9h5.7173c1.0318 0 1.8624 0.83062 1.8624 1.8624v4.9333c0 1.0318-0.83062 1.8624-1.8624 1.8624h-5.7173c-1.0318 0-1.8624-0.83061-1.8624-1.8624v-4.9333c0-1.0318 0.83061-1.8624 1.8624-1.8624z" fill="#257cfd" stroke="#000" stroke-width=".1837"/>
  <g transform="matrix(.0077642 0 0 .0077642 73.882 219.34)" fill="#fff">
   <path d="m990 182.1c0-44.2-33.5-76.5-77.7-76.5-23.9 0-45.4 14.3-45.4 14.3-205.5 110-533 481.6-533 481.6-23.9-20.2-169.7-154.1-169.7-154.1h-1.2l-1.2-1.2c-19.1-14.3-38.2-25.1-62.1-25.1-50.2 0-89.6 40.6-89.6 89.6 0 27.5 19.1 55 32.3 68.1 92 88.4 192.4 206.8 225.9 257 21.5 32.3 46.6 58.6 86 58.6 27.5 0 49-12 65.7-31.1 6-7.2 13.1-15.5 20.3-27.5 57.4-93.2 257-398 492.4-572.5 33.4-26.2 57.3-44.1 57.3-81.2z" fill="#fff"/>
  </g>
  <g fill="#1a1a1a">
   <path d="m74.209 24.922h120.71c1.4906 0 2.6906 1.2 2.6906 2.6906v17.121c0 1.4906-1.2 2.6906-2.6906 2.6906h-120.71c-1.4906 0-2.6906-1.2-2.6906-2.6906v-17.121c0-1.4906 1.2-2.6906 2.6906-2.6906z" stroke="#fff" stroke-width=".6"/>
   <g stroke-width=".1412">
    <path d="m91.046 169.81a3.3911 3.3911 0 0 1-3.3911 3.3911 3.3911 3.3911 0 0 1-3.3911-3.3911 3.3911 3.3911 0 0 1 3.3911-3.3911 3.3911 3.3911 0 0 1 3.3911 3.3911z"/>
    <path d="m111.88 169.81a3.3911 3.3911 0 0 1-3.3911 3.3911 3.3911 3.3911 0 0 1-3.3911-3.3911 3.3911 3.3911 0 0 1 3.3911-3.3911 3.3911 3.3911 0 0 1 3.3911 3.3911z"/>
    <path d="m132.61 169.81a3.3911 3.3911 0 0 1-3.3911 3.3911 3.3911 3.3911 0 0 1-3.3911-3.3911 3.3911 3.3911 0 0 1 3.3911-3.3911 3.3911 3.3911 0 0 1 3.3911 3.3911z"/>
    <path d="m153.75 169.81a3.3911 3.3911 0 0 1-3.3911 3.3911 3.3911 3.3911 0 0 1-3.3911-3.3911 3.3911 3.3911 0 0 1 3.3911-3.3911 3.3911 3.3911 0 0 1 3.3911 3.3911z"/>
    <path d="m174.68 169.81a3.3911 3.3911 0 0 1-3.3911 3.3911 3.3911 3.3911 0 0 1-3.3911-3.3911 3.3911 3.3911 0 0 1 3.3911-3.3911 3.3911 3.3911 0 0 1 3.3911 3.3911z"/>
   </g>
  </g>
  <g transform="matrix(.97163 0 0 .97163 -415.78 23.113)" fill="#000" style="shape-inside:url(#rect28043);white-space:pre" aria-label="Isi satu dulu">
   <path d="m517.04 201.93v7.4347h-0.97067v-7.4347z"/>
   <path d="m520.76 209.46q-0.672 0-1.2053-0.224-0.53334-0.23466-0.84267-0.64-0.30934-0.416-0.34134-0.94934h1.0027q0.0427 0.43734 0.40534 0.71467 0.37333 0.27734 0.97067 0.27734 0.55467 0 0.87467-0.24534 0.32-0.24533 0.32-0.61867 0-0.384-0.34134-0.56533-0.34133-0.192-1.056-0.37333-0.65067-0.17067-1.0667-0.34134-0.40533-0.18133-0.704-0.52267-0.288-0.352-0.288-0.91733 0-0.44801 0.26666-0.82134 0.26667-0.37333 0.75734-0.58667 0.49067-0.224 1.12-0.224 0.97067 0 1.568 0.49067 0.59733 0.49067 0.64 1.344h-0.97067q-0.032-0.45866-0.37333-0.736-0.33067-0.27733-0.89601-0.27733-0.52266 0-0.832 0.224-0.30933 0.224-0.30933 0.58667 0 0.288 0.18133 0.48 0.192 0.18133 0.46934 0.29867 0.288 0.10666 0.78933 0.24533 0.62934 0.17067 1.024 0.34133 0.39467 0.16 0.67201 0.49067 0.288 0.33067 0.29866 0.864 0 0.48001-0.26666 0.86401-0.26667 0.384-0.75734 0.608-0.48 0.21333-1.1093 0.21333z"/>
   <path d="m524.76 202.57q-0.27733 0-0.46933-0.19201-0.19201-0.192-0.19201-0.46933t0.19201-0.46934q0.192-0.192 0.46933-0.192 0.26667 0 0.448 0.192 0.192 0.19201 0.192 0.46934t-0.192 0.46933q-0.18133 0.19201-0.448 0.19201zm0.46933 0.94933v5.8454h-0.97066v-5.8454z"/>
   <path d="m531.8 209.46q-0.67201 0-1.2053-0.224-0.53334-0.23466-0.84267-0.64-0.30933-0.416-0.34133-0.94934h1.0027q0.0427 0.43734 0.40533 0.71467 0.37334 0.27734 0.97067 0.27734 0.55467 0 0.87467-0.24534 0.32-0.24533 0.32-0.61867 0-0.384-0.34133-0.56533-0.34134-0.192-1.056-0.37333-0.65067-0.17067-1.0667-0.34134-0.40533-0.18133-0.704-0.52267-0.288-0.352-0.288-0.91733 0-0.44801 0.26667-0.82134 0.26666-0.37333 0.75733-0.58667 0.49067-0.224 1.12-0.224 0.97067 0 1.568 0.49067 0.59734 0.49067 0.64 1.344h-0.97067q-0.032-0.45866-0.37333-0.736-0.33067-0.27733-0.896-0.27733-0.52267 0-0.83201 0.224-0.30933 0.224-0.30933 0.58667 0 0.288 0.18133 0.48 0.192 0.18133 0.46934 0.29867 0.288 0.10666 0.78933 0.24533 0.62934 0.17067 1.024 0.34133 0.39467 0.16 0.672 0.49067 0.288 0.33067 0.29867 0.864 0 0.48001-0.26667 0.86401t-0.75734 0.608q-0.48 0.21333-1.1093 0.21333z"/>
   <path d="m534.94 206.42q0-0.896 0.36267-1.568 0.36267-0.68267 0.992-1.056 0.64-0.37334 1.4187-0.37334 0.76801 0 1.3333 0.33067 0.56534 0.33067 0.84267 0.832v-1.0667h0.98134v5.8454h-0.98134v-1.088q-0.288 0.512-0.864 0.85334-0.56534 0.33066-1.3227 0.33066-0.77867 0-1.408-0.384-0.62933-0.384-0.992-1.0773-0.36267-0.69334-0.36267-1.5787zm4.9494 0.0107q0-0.66133-0.26667-1.152t-0.72533-0.74667q-0.448-0.26667-0.99201-0.26667-0.544 0-0.992 0.256t-0.71467 0.74667-0.26667 1.152q0 0.67201 0.26667 1.1733 0.26667 0.49067 0.71467 0.75734 0.448 0.256 0.992 0.256 0.54401 0 0.99201-0.256 0.45866-0.26667 0.72533-0.75734 0.26667-0.50133 0.26667-1.1627z"/>
   <path d="m543.7 204.32v3.4454q0 0.42667 0.18133 0.608 0.18134 0.17067 0.62934 0.17067h0.71467v0.82133h-0.87467q-0.81067 0-1.216-0.37333-0.40533-0.37334-0.40533-1.2267v-3.4454h-0.75734v-0.8h0.75734v-1.472h0.97067v1.472h1.5253v0.8z"/>
   <path d="m551.58 203.52v5.8454h-0.97067v-0.864q-0.27733 0.448-0.77867 0.704-0.49066 0.24534-1.088 0.24534-0.68267 0-1.2267-0.27734-0.544-0.288-0.864-0.85333-0.30934-0.56534-0.30934-1.376v-3.424h0.96001v3.296q0 0.864 0.43733 1.3333 0.43734 0.45867 1.1947 0.45867 0.77867 0 1.2267-0.48 0.448-0.48001 0.448-1.3973v-3.2107z"/>
   <path d="m555.71 206.42q0-0.896 0.36267-1.568 0.36267-0.68267 0.992-1.056 0.64-0.37334 1.4293-0.37334 0.68267 0 1.2693 0.32 0.58667 0.30934 0.896 0.82134v-3.0934h0.98134v7.8934h-0.98134v-1.0987q-0.288 0.52267-0.85334 0.86401-0.56533 0.33066-1.3227 0.33066-0.77867 0-1.4187-0.384-0.62933-0.384-0.992-1.0773-0.36267-0.69334-0.36267-1.5787zm4.9494 0.0107q0-0.66133-0.26667-1.152t-0.72533-0.74667q-0.448-0.26667-0.99201-0.26667-0.544 0-0.992 0.256t-0.71467 0.74667-0.26667 1.152q0 0.67201 0.26667 1.1733 0.26667 0.49067 0.71467 0.75734 0.448 0.256 0.992 0.256 0.54401 0 0.99201-0.256 0.45866-0.26667 0.72533-0.75734 0.26667-0.50133 0.26667-1.1627z"/>
   <path d="m568.46 203.52v5.8454h-0.97067v-0.864q-0.27733 0.448-0.77867 0.704-0.49066 0.24534-1.088 0.24534-0.68267 0-1.2267-0.27734-0.544-0.288-0.864-0.85333-0.30934-0.56534-0.30934-1.376v-3.424h0.96001v3.296q0 0.864 0.43733 1.3333 0.43733 0.45867 1.1947 0.45867 0.77867 0 1.2267-0.48 0.448-0.48001 0.448-1.3973v-3.2107z"/>
   <path d="m571.08 201.47v7.8934h-0.97066v-7.8934z"/>
   <path d="m577.91 203.52v5.8454h-0.97067v-0.864q-0.27733 0.448-0.77867 0.704-0.49066 0.24534-1.088 0.24534-0.68267 0-1.2267-0.27734-0.544-0.288-0.864-0.85333-0.30934-0.56534-0.30934-1.376v-3.424h0.96001v3.296q0 0.864 0.43733 1.3333 0.43734 0.45867 1.1947 0.45867 0.77867 0 1.2267-0.48 0.448-0.48001 0.448-1.3973v-3.2107z"/>
  </g>
 </g>
 <path d="m247.87 15.421h-224.27c-4.2683 0-7.7284 5.2831-7.7284 11.8v223.89c0 6.517 3.4602 11.8 7.7284 11.8h224.27c4.2679 0 7.7283-5.283 7.7283-11.8v-223.89c0-6.517-3.4604-11.8-7.7283-11.8z" fill="#fff" stroke-width=".72127"/>
 <path d="m277.08 150.58h64.24c1.3954 0 2.5188 1.1234 2.5188 2.5188v9.8874c0 1.3954-1.1234 2.5188-2.5188 2.5188h-64.24c-1.3954 0-2.5188-1.1234-2.5188-2.5188v-9.8874c0-1.3954 1.1234-2.5188 2.5188-2.5188z" fill="#1a1a1a" stroke-width=".1463"/>
 <g fill="#000">
  <path d="m20.689 34.189h11.463v11.039h-11.463z" stroke-width=".20647"/>
  <path d="m20.689 34.189h11.463v11.039h-11.463z" stroke-width=".20647"/>
  <path d="m40.643 34.189h20.803v11.039h-20.803z" stroke-width=".27815"/>
  <path d="m72.494 34.189h30.144v11.039h-30.144z" stroke-width=".33482"/>
  <g stroke-width=".29469">
   <path d="m150.99 34.189h23.351v11.039h-23.351z"/>
   <path d="m181.99 34.189h23.351v11.039h-23.351z"/>
   <path d="m213.83 34.189h23.351v11.039h-23.351z"/>
  </g>
 </g>
 <g fill="#7c7c7c" stroke="#aeaeae" stroke-width="1px">
  <path d="m19.394 48.696h217.37z"/>
  <path d="m19.394 65.052h217.37z"/>
  <path d="m19.394 81.408h217.37z"/>
  <path d="m19.394 97.764h217.37z"/>
  <path d="m19.394 114.12h217.37z"/>
  <path d="m19.394 130.48h217.37z"/>
  <path d="m19.394 146.83h217.37z"/>
  <path d="m19.394 163.19h217.37z"/>
  <path d="m19.394 179.55h217.37z"/>
 </g>
 <g fill="#1a1a1a">
  <g stroke-width=".13332">
   <path d="m31.966 56.981a5.6035 5.6035 0 0 1-5.6035 5.6035 5.6035 5.6035 0 0 1-5.6035-5.6035 5.6035 5.6035 0 0 1 5.6035-5.6035 5.6035 5.6035 0 0 1 5.6035 5.6035z"/>
   <path d="m31.966 72.592a5.6035 5.6035 0 0 1-5.6035 5.6035 5.6035 5.6035 0 0 1-5.6035-5.6035 5.6035 5.6035 0 0 1 5.6035-5.6035 5.6035 5.6035 0 0 1 5.6035 5.6035z"/>
   <path d="m31.966 90.004a5.6035 5.6035 0 0 1-5.6035 5.6035 5.6035 5.6035 0 0 1-5.6035-5.6035 5.6035 5.6035 0 0 1 5.6035-5.6035 5.6035 5.6035 0 0 1 5.6035 5.6035z"/>
   <path d="m31.966 106.22a5.6035 5.6035 0 0 1-5.6035 5.6035 5.6035 5.6035 0 0 1-5.6035-5.6035 5.6035 5.6035 0 0 1 5.6035-5.6035 5.6035 5.6035 0 0 1 5.6035 5.6035z"/>
   <path d="m31.966 122.13a5.6035 5.6035 0 0 1-5.6035 5.6035 5.6035 5.6035 0 0 1-5.6035-5.6035 5.6035 5.6035 0 0 1 5.6035-5.6035 5.6035 5.6035 0 0 1 5.6035 5.6035z"/>
   <path d="m31.966 138.64a5.6035 5.6035 0 0 1-5.6035 5.6035 5.6035 5.6035 0 0 1-5.6035-5.6035 5.6035 5.6035 0 0 1 5.6035-5.6035 5.6035 5.6035 0 0 1 5.6035 5.6035z"/>
   <path d="m31.966 154.55a5.6035 5.6035 0 0 1-5.6035 5.6035 5.6035 5.6035 0 0 1-5.6035-5.6035 5.6035 5.6035 0 0 1 5.6035-5.6035 5.6035 5.6035 0 0 1 5.6035 5.6035z"/>
   <path d="m31.966 171.06a5.6035 5.6035 0 0 1-5.6035 5.6035 5.6035 5.6035 0 0 1-5.6035-5.6035 5.6035 5.6035 0 0 1 5.6035-5.6035 5.6035 5.6035 0 0 1 5.6035 5.6035z"/>
  </g>
  <g stroke-width=".26057">
   <path d="m44.389 51.386h16.902c2.4697 0 4.4579 1.9882 4.4579 4.4579v2.4922c0 2.4697-1.9882 4.4579-4.4579 4.4579h-16.902c-2.4697 0-4.4579-1.9882-4.4579-4.4579v-2.4922c0-2.4697 1.9882-4.4579 4.4579-4.4579z"/>
   <path d="m44.389 67.897h16.902c2.4697 0 4.4579 1.9882 4.4579 4.4579v2.4922c0 2.4697-1.9882 4.4579-4.4579 4.4579h-16.902c-2.4697 0-4.4579-1.9882-4.4579-4.4579v-2.4922c0-2.4697 1.9882-4.4579 4.4579-4.4579z"/>
   <path d="m44.389 83.809h16.902c2.4697 0 4.4579 1.9882 4.4579 4.4579v2.4922c0 2.4697-1.9882 4.4579-4.4579 4.4579h-16.902c-2.4697 0-4.4579-1.9882-4.4579-4.4579v-2.4922c0-2.4697 1.9882-4.4579 4.4579-4.4579z"/>
   <path d="m44.389 101.52h16.902c2.4697 0 4.4579 1.9882 4.4579 4.4579v2.4922c0 2.4697-1.9882 4.4579-4.4579 4.4579h-16.902c-2.4697 0-4.4579-1.9882-4.4579-4.4579v-2.4922c0-2.4697 1.9882-4.4579 4.4579-4.4579z"/>
   <path d="m44.389 116.23h16.902c2.4697 0 4.4579 1.9882 4.4579 4.4579v2.4922c0 2.4697-1.9882 4.4579-4.4579 4.4579h-16.902c-2.4697 0-4.4579-1.9882-4.4579-4.4579v-2.4922c0-2.4697 1.9882-4.4579 4.4579-4.4579z"/>
   <path d="m44.389 133.34h16.902c2.4697 0 4.4579 1.9882 4.4579 4.4579v2.4922c0 2.4697-1.9882 4.4579-4.4579 4.4579h-16.902c-2.4697 0-4.4579-1.9882-4.4579-4.4579v-2.4922c0-2.4697 1.9882-4.4579 4.4579-4.4579z"/>
   <path d="m44.389 150.45h16.902c2.4697 0 4.4579 1.9882 4.4579 4.4579v2.4922c0 2.4697-1.9882 4.4579-4.4579 4.4579h-16.902c-2.4697 0-4.4579-1.9882-4.4579-4.4579v-2.4922c0-2.4697 1.9882-4.4579 4.4579-4.4579z"/>
   <path d="m44.389 165.77h16.902c2.4697 0 4.4579 1.9882 4.4579 4.4579v2.4922c0 2.4697-1.9882 4.4579-4.4579 4.4579h-16.902c-2.4697 0-4.4579-1.9882-4.4579-4.4579v-2.4922c0-2.4697 1.9882-4.4579 4.4579-4.4579z"/>
  </g>
  <path d="m76.811 51.386h64.936c2.4697 0 4.4579 1.9882 4.4579 4.4579v2.4922c0 2.4697-1.9882 4.4579-4.4579 4.4579h-64.936c-2.4697 0-4.4579-1.9882-4.4579-4.4579v-2.4922c0-2.4697 1.9882-4.4579 4.4579-4.4579z" stroke-width=".44069"/>
  <path d="m76.811 67.597h34.915c2.4697 0 4.4579 1.9882 4.4579 4.4579v2.4922c0 2.4697-1.9882 4.4579-4.4579 4.4579h-34.915c-2.4697 0-4.4579-1.9882-4.4579-4.4579v-2.4922c0-2.4697 1.9882-4.4579 4.4579-4.4579z" stroke-width=".3395"/>
  <path d="m76.811 84.109h54.729c2.4697 0 4.4579 1.9882 4.4579 4.4579v2.4922c0 2.4697-1.9882 4.4579-4.4579 4.4579h-54.729c-2.4697 0-4.4579-1.9882-4.4579-4.4579v-2.4922c0-2.4697 1.9882-4.4579 4.4579-4.4579z" stroke-width=".40911"/>
  <path d="m76.811 100.92h24.708c2.4697 0 4.4579 1.9882 4.4579 4.4579v2.4922c0 2.4697-1.9882 4.4579-4.4579 4.4579h-24.708c-2.4697 0-4.4579-1.9882-4.4579-4.4579v-2.4922c0-2.4697 1.9882-4.4579 4.4579-4.4579z" stroke-width=".29736"/>
  <path d="m76.811 116.23h59.532c2.4697 0 4.4579 1.9882 4.4579 4.4579v2.4922c0 2.4697-1.9882 4.4579-4.4579 4.4579h-59.532c-2.4697 0-4.4579-1.9882-4.4579-4.4579v-2.4922c0-2.4697 1.9882-4.4579 4.4579-4.4579z" stroke-width=".42426"/>
  <path d="m76.811 132.74h62.534c2.4697 0 4.4579 1.9882 4.4579 4.4579v2.4922c0 2.4697-1.9882 4.4579-4.4579 4.4579h-62.534c-2.4697 0-4.4579-1.9882-4.4579-4.4579v-2.4922c0-2.4697 1.9882-4.4579 4.4579-4.4579z" stroke-width=".43347"/>
  <path d="m76.811 150.76h41.519c2.4697 0 4.4579 1.9882 4.4579 4.4579v2.4922c0 2.4697-1.9882 4.4579-4.4579 4.4579h-41.519c-2.4697 0-4.4579-1.9882-4.4579-4.4579v-2.4922c0-2.4697 1.9882-4.4579 4.4579-4.4579z" stroke-width=".36419"/>
  <path d="m76.811 165.47h51.126c2.4697 0 4.4579 1.9882 4.4579 4.4579v2.4922c0 2.4697-1.9882 4.4579-4.4579 4.4579h-51.126c-2.4697 0-4.4579-1.9882-4.4579-4.4579v-2.4922c0-2.4697 1.9882-4.4579 4.4579-4.4579z" stroke-width=".39736"/>
 </g>
 <g fill="#257cfd" stroke-width=".47184">
  <path d="m155.77 68.198h75.743c2.4697 0 4.4579 1.9882 4.4579 4.4579v2.4922c0 2.4697-1.9882 4.4579-4.4579 4.4579h-75.743c-2.4697 0-4.4579-1.9882-4.4579-4.4579v-2.4922c0-2.4697 1.9882-4.4579 4.4579-4.4579z"/>
  <path d="m155.77 83.809h75.743c2.4697 0 4.4579 1.9882 4.4579 4.4579v2.4922c0 2.4697-1.9882 4.4579-4.4579 4.4579h-75.743c-2.4697 0-4.4579-1.9882-4.4579-4.4579v-2.4922c0-2.4697 1.9882-4.4579 4.4579-4.4579z"/>
  <path d="m155.77 100.02h75.743c2.4697 0 4.4579 1.9882 4.4579 4.4579v2.4922c0 2.4697-1.9882 4.4579-4.4579 4.4579h-75.743c-2.4697 0-4.4579-1.9882-4.4579-4.4579v-2.4922c0-2.4697 1.9882-4.4579 4.4579-4.4579z"/>
  <path d="m155.77 117.73h75.743c2.4697 0 4.4579 1.9882 4.4579 4.4579v2.4922c0 2.4697-1.9882 4.4579-4.4579 4.4579h-75.743c-2.4697 0-4.4579-1.9882-4.4579-4.4579v-2.4922c0-2.4697 1.9882-4.4579 4.4579-4.4579z"/>
  <path d="m155.77 133.64h75.743c2.4697 0 4.4579 1.9882 4.4579 4.4579v2.4922c0 2.4697-1.9882 4.4579-4.4579 4.4579h-75.743c-2.4697 0-4.4579-1.9882-4.4579-4.4579v-2.4922c0-2.4697 1.9882-4.4579 4.4579-4.4579z"/>
  <path d="m155.77 149.25h75.743c2.4697 0 4.4579 1.9882 4.4579 4.4579v2.4922c0 2.4697-1.9882 4.4579-4.4579 4.4579h-75.743c-2.4697 0-4.4579-1.9882-4.4579-4.4579v-2.4922c0-2.4697 1.9882-4.4579 4.4579-4.4579z"/>
  <path d="m155.77 165.17h75.743c2.4697 0 4.4579 1.9882 4.4579 4.4579v2.4922c0 2.4697-1.9882 4.4579-4.4579 4.4579h-75.743c-2.4697 0-4.4579-1.9882-4.4579-4.4579v-2.4922c0-2.4697 1.9882-4.4579 4.4579-4.4579z"/>
 </g>
 <g transform="translate(5.4037 5.704)" fill="#000" style="shape-inside:url(#rect85663);white-space:pre" aria-label="0.00">
  <path d="m178.35 51.092q0-1.8347 0.59734-2.8587 0.59734-1.0347 2.0907-1.0347 1.4827 0 2.08 1.0347 0.59734 1.024 0.59734 2.8587 0 1.8667-0.59734 2.9013t-2.08 1.0347q-1.4933 0-2.0907-1.0347t-0.59734-2.9013zm4.4054 0q0-0.928-0.128-1.568-0.11733-0.65067-0.50133-1.0453-0.37334-0.39467-1.088-0.39467-0.72533 0-1.1093 0.39467-0.37334 0.39467-0.50134 1.0453-0.11733 0.64-0.11733 1.568 0 0.96 0.11733 1.6107 0.128 0.65067 0.50134 1.0453 0.384 0.39467 1.1093 0.39467 0.71467 0 1.088-0.39467 0.384-0.39467 0.50133-1.0453 0.128-0.65067 0.128-1.6107z"/>
  <path d="m185.52 55.092q-0.27733 0-0.46933-0.192-0.19201-0.192-0.19201-0.46934 0-0.27733 0.19201-0.46933 0.192-0.192 0.46933-0.192 0.26667 0 0.448 0.192 0.192 0.192 0.192 0.46933 0 0.27734-0.192 0.46934-0.18133 0.192-0.448 0.192z"/>
  <path d="m187.29 51.092q0-1.8347 0.59734-2.8587 0.59733-1.0347 2.0907-1.0347 1.4827 0 2.08 1.0347 0.59733 1.024 0.59733 2.8587 0 1.8667-0.59733 2.9013-0.59734 1.0347-2.08 1.0347-1.4933 0-2.0907-1.0347-0.59734-1.0347-0.59734-2.9013zm4.4054 0q0-0.928-0.128-1.568-0.11733-0.65067-0.50133-1.0453-0.37334-0.39467-1.088-0.39467-0.72533 0-1.1093 0.39467-0.37333 0.39467-0.50133 1.0453-0.11733 0.64-0.11733 1.568 0 0.96 0.11733 1.6107 0.128 0.65067 0.50133 1.0453 0.38401 0.39467 1.1093 0.39467 0.71467 0 1.088-0.39467 0.384-0.39467 0.50133-1.0453 0.128-0.65067 0.128-1.6107z"/>
  <path d="m193.99 51.092q0-1.8347 0.59734-2.8587 0.59733-1.0347 2.0907-1.0347 1.4827 0 2.08 1.0347 0.59733 1.024 0.59733 2.8587 0 1.8667-0.59733 2.9013-0.59734 1.0347-2.08 1.0347-1.4933 0-2.0907-1.0347-0.59734-1.0347-0.59734-2.9013zm4.4054 0q0-0.928-0.128-1.568-0.11733-0.65067-0.50133-1.0453-0.37334-0.39467-1.088-0.39467-0.72533 0-1.1093 0.39467-0.37334 0.39467-0.50134 1.0453-0.11733 0.64-0.11733 1.568 0 0.96 0.11733 1.6107 0.128 0.65067 0.50134 1.0453 0.384 0.39467 1.1093 0.39467 0.71467 0 1.088-0.39467 0.384-0.39467 0.50133-1.0453 0.128-0.65067 0.128-1.6107z"/>
 </g>
 <g transform="translate(43.83 5.704)" fill="#000" style="shape-inside:url(#rect105281);white-space:pre" aria-label="()">
  <path d="m181.01 57.012q-1.024-1.0027-1.6-2.5493-0.56534-1.5467-0.56534-3.3387 0-1.8347 0.59734-3.424 0.608-1.6 1.728-2.6347h1.0133v0.096q-1.1947 1.12-1.8027 2.6987-0.59734 1.568-0.59734 3.264 0 1.6533 0.56534 3.1573 0.576 1.504 1.6747 2.6347v0.096z"/>
  <path d="m183.05 57.012v-0.096q1.0987-1.1307 1.664-2.6347 0.57601-1.504 0.57601-3.1573 0-1.696-0.60801-3.264-0.59733-1.5787-1.792-2.6987v-0.096h1.0133q1.12 1.0347 1.7173 2.6347 0.608 1.5893 0.608 3.424 0 1.792-0.576 3.3387-0.56533 1.5467-1.5893 2.5493z"/>
 </g>
</svg>
