<?xml version="1.0" encoding="UTF-8"?>
<svg width="488" height="286" fill="none" version="1.1" viewBox="0 0 488 286" xmlns="http://www.w3.org/2000/svg">
 <mask x="47" y="8" width="394" height="250" mask-type="alpha" maskUnits="userSpaceOnUse">
  <path d="m440.67 8.7626h-393.34v248.7h393.34v-248.7z" fill="#36393F"/>
 </mask>
 <path d="m684.31 29.449h469.44c3.6774 0 6.6379 2.9605 6.6379 6.638v323.92c0 3.6774-2.9605 6.638-6.6379 6.638h-469.44c-3.6774 0-6.638-2.9605-6.638-6.638v-323.92c0-3.6774 2.9605-6.638 6.638-6.638z" fill="#292841"/>
 <g stroke-width="1.0292">
  <path d="m441.9 0.24988h-395.87c-7.5344 0-13.642 6.0939-13.642 13.611v258.25c0 7.5173 6.1079 13.611 13.642 13.611h395.87c7.5338 0 13.642-6.0939 13.642-13.611v-258.25c0-7.5173-6.1083-13.611-13.642-13.611z" fill="#11111a"/>
  <path d="m441.9 2.755c2.96-8.24e-5 5.7996 1.1673 7.9001 3.2478 2.1016 2.0804 3.2924 4.9051 3.315 7.8583v258.19c0 2.9672-1.1826 5.8129-3.2852 7.9115-2.1037 2.0985-4.9556 3.278-7.93 3.278h-395.79c-2.9744 0-5.827-1.1795-7.9303-3.278-2.1032-2.0985-3.2848-4.9443-3.2848-7.9115v-258.19c0.02213-2.9532 1.2134-5.7779 3.3143-7.8583 2.1008-2.0804 4.9408-3.2478 7.9008-3.2478zm0-2.5051h-395.79c-3.6259-6.725e-5 -7.1045 1.4313-9.6762 3.9815-2.5717 2.5502-4.0276 6.0121-4.0497 9.6297v258.19c0 3.632 1.4461 7.1149 4.0203 9.6827 2.5741 2.5689 6.0653 4.0118 9.7057 4.0118h395.79c3.6403 0 7.1313-1.4429 9.7054-4.0118 2.574-2.5679 4.0201-6.0507 4.0201-9.6827v-258.19c-0.0216-3.6176-1.4779-7.0795-4.0499-9.6297-2.571-2.5502-6.0496-3.9816-9.6755-3.9815z" fill="#b8b9c9"/>
  <path d="m278.36 282.33h-68.714c-0.6587-0.0206-1.2855-0.29126-1.7517-0.75646s-0.73794-1.091-0.75852-1.7486h73.734c-0.0206 0.65766-0.29229 1.2834-0.75852 1.7486s-1.093 0.73588-1.7517 0.75646z" fill="#b8b9c9"/>
 </g>
 <g transform="matrix(1.0292 0 0 1.0292 -19.36 .24988)">
  <path d="m250.52 14.41h-182.43c-3.472 0-6.2867 5.1332-6.2867 11.465v217.54c0 6.3321 2.8147 11.465 6.2867 11.465h182.43c3.4717 0 6.2866-5.1332 6.2866-11.465v-217.54c0-6.3321-2.8149-11.465-6.2866-11.465z" fill="#fff" stroke-width=".64123"/>
  <path d="m78.732 51.621h25.947c4.3501 0 7.8522 3.5355 7.8522 7.9272s-3.5021 7.9272-7.8522 7.9272h-25.947c-4.3501 0-7.8522-3.5355-7.8522-7.9272s3.5021-7.9272 7.8522-7.9272z" fill="#1a1a1a" stroke-width="3.678"/>
  <path d="m75.832 99.209h43.248c2.7436 0 4.9523 3.5355 4.9523 7.9272s-2.2087 7.9272-4.9523 7.9272h-43.248c-2.7436 0-4.9523-3.5355-4.9523-7.9272s2.2087-7.9272 4.9523-7.9272z" fill="#1a1a1a" stroke-width="4.1549"/>
  <g fill="#fff">
   <path d="m74.444 121.63h172.82c1.8246 0 3.2936 1.4689 3.2936 3.2936v8.7244c0 1.8246-1.4689 3.2936-3.2936 3.2936h-172.82c-1.8246 0-3.2936-1.4689-3.2936-3.2936v-8.7244c0-1.8246 1.4689-3.2936 3.2936-3.2936z" stroke="#000" stroke-width="1.0649"/>
   <path d="m251.12 74.046h0.29091c0.31069 0 0.56082 0.05399 0.56082 0.12105v3.3645c0 0.06706-0.25013 0.12105-0.56082 0.12105h-0.29091c-0.3107 0-0.56083-0.05399-0.56083-0.12105v-3.3645c0-0.06706 0.25013-0.12105 0.56083-0.12105z" stroke="#fff" stroke-width=".5221"/>
   <g stroke="#000">
    <path d="m74.444 73.649h172.82c1.8246 0 3.2936 1.4689 3.2936 3.2936v8.7244c0 1.8246-1.4689 3.2936-3.2936 3.2936h-172.82c-1.8246 0-3.2936-1.4689-3.2936-3.2936v-8.7244c0-1.8246 1.4689-3.2936 3.2936-3.2936z" stroke-width="1.0649"/>
    <path d="m75.15 165.72h5.7173c1.0318 0 1.8624 0.83062 1.8624 1.8624v4.9333c0 1.0318-0.83062 1.8624-1.8624 1.8624h-5.7173c-1.0318 0-1.8624-0.83061-1.8624-1.8624v-4.9333c0-1.0318 0.83061-1.8624 1.8624-1.8624z" stroke-width=".1837"/>
    <path d="m95.326 165.72h5.7173c1.0318 0 1.8624 0.83062 1.8624 1.8624v4.9333c0 1.0318-0.83061 1.8624-1.8624 1.8624h-5.7173c-1.0318 0-1.8624-0.83061-1.8624-1.8624v-4.9333c0-1.0318 0.83061-1.8624 1.8624-1.8624z" stroke-width=".1837"/>
   </g>
  </g>
  <g fill="#257cfd" stroke="#000" stroke-width=".1837">
   <path d="m116.44 165.72h5.7173c1.0318 0 1.8624 0.83062 1.8624 1.8624v4.9333c0 1.0318-0.83062 1.8624-1.8624 1.8624h-5.7173c-1.0318 0-1.8624-0.83061-1.8624-1.8624v-4.9333c0-1.0318 0.83061-1.8624 1.8624-1.8624z"/>
   <path d="m137.56 165.72h5.7173c1.0318 0 1.8624 0.83062 1.8624 1.8624v4.9333c0 1.0318-0.83062 1.8624-1.8624 1.8624h-5.7173c-1.0318 0-1.8624-0.83061-1.8624-1.8624v-4.9333c0-1.0318 0.83061-1.8624 1.8624-1.8624z"/>
   <path d="m157.61 165.72h5.7173c1.0318 0 1.8624 0.83062 1.8624 1.8624v4.9333c0 1.0318-0.83061 1.8624-1.8624 1.8624h-5.7173c-1.0318 0-1.8624-0.83061-1.8624-1.8624v-4.9333c0-1.0318 0.83062-1.8624 1.8624-1.8624z"/>
  </g>
  <g fill="#fff">
   <g transform="matrix(.0077642 0 0 .0077642 115.42 166.17)">
    <path d="m990 182.1c0-44.2-33.5-76.5-77.7-76.5-23.9 0-45.4 14.3-45.4 14.3-205.5 110-533 481.6-533 481.6-23.9-20.2-169.7-154.1-169.7-154.1h-1.2l-1.2-1.2c-19.1-14.3-38.2-25.1-62.1-25.1-50.2 0-89.6 40.6-89.6 89.6 0 27.5 19.1 55 32.3 68.1 92 88.4 192.4 206.8 225.9 257 21.5 32.3 46.6 58.6 86 58.6 27.5 0 49-12 65.7-31.1 6-7.2 13.1-15.5 20.3-27.5 57.4-93.2 257-398 492.4-572.5 33.4-26.2 57.3-44.1 57.3-81.2z"/>
    <path d="m990 182.1c0-44.2-33.5-76.5-77.7-76.5-23.9 0-45.4 14.3-45.4 14.3-205.5 110-533 481.6-533 481.6-23.9-20.2-169.7-154.1-169.7-154.1h-1.2l-1.2-1.2c-19.1-14.3-38.2-25.1-62.1-25.1-50.2 0-89.6 40.6-89.6 89.6 0 27.5 19.1 55 32.3 68.1 92 88.4 192.4 206.8 225.9 257 21.5 32.3 46.6 58.6 86 58.6 27.5 0 49-12 65.7-31.1 6-7.2 13.1-15.5 20.3-27.5 57.4-93.2 257-398 492.4-572.5 33.4-26.2 57.3-44.1 57.3-81.2z"/>
   </g>
   <g transform="matrix(.0077642 0 0 .0077642 136.54 166.17)">
    <path d="m990 182.1c0-44.2-33.5-76.5-77.7-76.5-23.9 0-45.4 14.3-45.4 14.3-205.5 110-533 481.6-533 481.6-23.9-20.2-169.7-154.1-169.7-154.1h-1.2l-1.2-1.2c-19.1-14.3-38.2-25.1-62.1-25.1-50.2 0-89.6 40.6-89.6 89.6 0 27.5 19.1 55 32.3 68.1 92 88.4 192.4 206.8 225.9 257 21.5 32.3 46.6 58.6 86 58.6 27.5 0 49-12 65.7-31.1 6-7.2 13.1-15.5 20.3-27.5 57.4-93.2 257-398 492.4-572.5 33.4-26.2 57.3-44.1 57.3-81.2z" fill="#fff"/>
   </g>
   <g transform="matrix(.0077642 0 0 .0077642 156.59 166.17)">
    <path d="m990 182.1c0-44.2-33.5-76.5-77.7-76.5-23.9 0-45.4 14.3-45.4 14.3-205.5 110-533 481.6-533 481.6-23.9-20.2-169.7-154.1-169.7-154.1h-1.2l-1.2-1.2c-19.1-14.3-38.2-25.1-62.1-25.1-50.2 0-89.6 40.6-89.6 89.6 0 27.5 19.1 55 32.3 68.1 92 88.4 192.4 206.8 225.9 257 21.5 32.3 46.6 58.6 86 58.6 27.5 0 49-12 65.7-31.1 6-7.2 13.1-15.5 20.3-27.5 57.4-93.2 257-398 492.4-572.5 33.4-26.2 57.3-44.1 57.3-81.2z" fill="#fff"/>
   </g>
  </g>
  <path d="m74.865 180.78h34.803c2.2079 0 3.9853 3.5355 3.9853 7.9272 0 4.3917-1.7774 7.9272-3.9853 7.9272h-34.803c-2.2079 0-3.9853-3.5355-3.9853-7.9272 0-4.3916 1.7774-7.9272 3.9853-7.9272z" fill="#1a1a1a" stroke-width="3.7272"/>
  <path d="m77.617 203.55h0.78406c2.3983 0 4.329 1.9307 4.329 4.329 0 2.3983-1.9307 4.329-4.329 4.329h-0.78406c-2.3983 0-4.329-1.9307-4.329-4.329 0-2.3983 1.9307-4.329 4.329-4.329z" fill="#fff" stroke="#000" stroke-width=".1837"/>
  <path d="m87.692 204.45h14.135c1.8213 0 3.2876 1.3787 3.2876 3.0912v0.66704c0 1.7125-1.4663 3.0912-3.2876 3.0912h-14.135c-1.8213 0-3.2876-1.3787-3.2876-3.0912v-0.66704c0-1.7125 1.4663-3.0912 3.2876-3.0912z" fill="#1a1a1a" stroke-width="1.7047"/>
  <path d="m114.51 203.55h0.78406c2.3983 0 4.329 1.9307 4.329 4.329 0 2.3983-1.9307 4.329-4.329 4.329h-0.78406c-2.3983 0-4.329-1.9307-4.329-4.329 0-2.3983 1.9307-4.329 4.329-4.329z" fill="#fff" stroke="#000" stroke-width=".1837"/>
  <path d="m124.59 204.45h14.135c1.8213 0 3.2876 1.3787 3.2876 3.0912v0.66704c0 1.7125-1.4663 3.0912-3.2876 3.0912h-14.135c-1.8213 0-3.2876-1.3787-3.2876-3.0912v-0.66704c0-1.7125 1.4663-3.0912 3.2876-3.0912z" fill="#1a1a1a" stroke-width="1.7047"/>
  <path d="m73.57 232.24h37.392c1.4906 0 2.6906 1.2 2.6906 2.6906v10.473c0 1.4906-1.2 2.6906-2.6906 2.6906h-37.392c-1.4906 0-2.6906-1.2-2.6906-2.6906v-10.473c0-1.4906 1.2-2.6906 2.6906-2.6906z" fill="#257cfd" stroke-width="3.7272"/>
  <path d="m75.15 218.9h5.7173c1.0318 0 1.8624 0.83062 1.8624 1.8624v4.9333c0 1.0318-0.83062 1.8624-1.8624 1.8624h-5.7173c-1.0318 0-1.8624-0.83061-1.8624-1.8624v-4.9333c0-1.0318 0.83061-1.8624 1.8624-1.8624z" fill="#fff" stroke="#000" stroke-width=".1837"/>
  <path d="m92.796 219.8h3.7631c4.605 0 8.3122 1.3787 8.3122 3.0912v0.66704c0 1.7125-3.7072 3.0912-8.3122 3.0912h-3.7631c-4.605 0-8.3122-1.3787-8.3122-3.0912v-0.66704c0-1.7125 3.7072-3.0912 8.3122-3.0912z" fill="#1a1a1a" stroke-width="1.6914"/>
  <g fill="#000">
   <g transform="translate(64.262 218.31)" style="shape-inside:url(#rect30620);white-space:pre" aria-label="Nilai Kuesioner">
    <path d="m15.768-73.273v9.6969h-1.1364l-5.2841-7.6136h-0.094697v7.6136h-1.1742v-9.6969h1.1364l5.303 7.6326h0.0947v-7.6326z" style="shape-inside:url(#rect30620);white-space:pre"/>
    <path d="m17.965-63.576v-7.2727h1.1174v7.2727zm0.56818-8.4848q-0.3267 0-0.56345-0.22254-0.23201-0.22254-0.23201-0.53504 0-0.3125 0.23201-0.53504 0.23674-0.22254 0.56345-0.22254 0.3267 0 0.55871 0.22254 0.23674 0.22254 0.23674 0.53504 0 0.3125-0.23674 0.53504-0.23201 0.22254-0.55871 0.22254z" style="shape-inside:url(#rect30620);white-space:pre"/>
    <path d="m22.245-73.273v9.6969h-1.1174v-9.6969z" style="shape-inside:url(#rect30620);white-space:pre"/>
    <path d="m26.431-63.406q-0.69129 0-1.2547-0.26042-0.56345-0.26515-0.89488-0.76231-0.33144-0.50189-0.33144-1.2121 0-0.625 0.24621-1.0133 0.24621-0.39299 0.65814-0.61553t0.90909-0.33144q0.50189-0.11364 1.0085-0.17992 0.66288-0.08523 1.0748-0.12784 0.41666-0.04735 0.60606-0.15625 0.19413-0.1089 0.19413-0.37879v-0.03788q0-0.70076-0.38352-1.089-0.37879-0.38826-1.1506-0.38826-0.80019 0-1.2547 0.35038-0.45454 0.35038-0.6392 0.7481l-1.0606-0.37879q0.28409-0.66288 0.75757-1.0322 0.47822-0.37405 1.0417-0.52083 0.56818-0.15151 1.1174-0.15151 0.35038 0 0.80492 0.08523 0.45928 0.08049 0.88542 0.33617 0.43087 0.25568 0.71496 0.77178 0.28409 0.5161 0.28409 1.3826v4.7917h-1.1174v-0.98485h-0.05682q-0.11364 0.23674-0.37879 0.50663-0.26515 0.26988-0.70549 0.45928-0.44034 0.18939-1.0748 0.18939zm0.17046-1.0038q0.66288 0 1.1174-0.26042 0.45928-0.26042 0.69129-0.67235 0.23674-0.41193 0.23674-0.86648v-1.0227q-0.07102 0.08523-0.3125 0.15625-0.23674 0.06629-0.54924 0.11837-0.30776 0.04735-0.60132 0.08523-0.28882 0.03314-0.46875 0.05682-0.4356 0.05682-0.81439 0.18466-0.37405 0.1231-0.60606 0.37405-0.22727 0.24621-0.22727 0.67235 0 0.58238 0.43087 0.88068 0.4356 0.29356 1.1032 0.29356z" style="shape-inside:url(#rect30620);white-space:pre"/>
    <path d="m31.81-63.576v-7.2727h1.1174v7.2727zm0.56818-8.4848q-0.3267 0-0.56344-0.22254-0.23201-0.22254-0.23201-0.53504 0-0.3125 0.23201-0.53504 0.23674-0.22254 0.56344-0.22254t0.55871 0.22254q0.23674 0.22254 0.23674 0.53504 0 0.3125-0.23674 0.53504-0.23201 0.22254-0.55871 0.22254z" style="shape-inside:url(#rect30620);white-space:pre"/>
    <path d="m38.874-63.576v-9.6969h1.1742v4.8106h0.11364l4.356-4.8106h1.5341l-4.072 4.375 4.072 5.322h-1.4205l-3.3712-4.5076-1.2121 1.3636v3.1439z" style="shape-inside:url(#rect30620);white-space:pre"/>
    <path d="m51.544-66.55v-4.2992h1.1174v7.2727h-1.1174v-1.2311h-0.07576q-0.25568 0.55398-0.79545 0.94223-0.53977 0.38352-1.3636 0.38352-0.68182 0-1.2121-0.2983-0.5303-0.30303-0.83333-0.90909-0.30303-0.61079-0.30303-1.5388v-4.6212h1.1174v4.5454q0 0.79545 0.44507 1.2689 0.44981 0.47348 1.1458 0.47348 0.41667 0 0.84754-0.21307 0.4356-0.21307 0.72916-0.65341 0.2983-0.44034 0.2983-1.1222z" style="shape-inside:url(#rect30620);white-space:pre"/>
    <path d="m57.756-63.425q-1.0511 0-1.8134-0.46401-0.75757-0.46875-1.1695-1.3068-0.4072-0.8428-0.4072-1.9602 0-1.1174 0.4072-1.9697 0.41193-0.85701 1.1458-1.3352 0.73864-0.48295 1.7235-0.48295 0.56818 0 1.1222 0.18939 0.55398 0.18939 1.0085 0.61553 0.45454 0.4214 0.72443 1.1174t0.26989 1.714v0.47348h-5.606v-0.96591h4.4697q0-0.61553-0.24621-1.0985-0.24148-0.48295-0.69129-0.76231-0.44507-0.27936-1.0511-0.27936-0.66761 0-1.1553 0.33144-0.48295 0.3267-0.74337 0.85227t-0.26042 1.1269v0.64394q0 0.82386 0.28409 1.3968 0.28882 0.56818 0.80019 0.86648 0.51136 0.29356 1.1884 0.29356 0.44034 0 0.79545-0.12311 0.35985-0.12784 0.62026-0.37879 0.26042-0.25568 0.40246-0.63447l1.0795 0.30303q-0.17046 0.54924-0.57292 0.96591-0.40246 0.41193-0.99432 0.64394-0.59186 0.22727-1.3305 0.22727z" style="shape-inside:url(#rect30620);white-space:pre"/>
    <path d="m67.624-69.22-1.0038 0.28409q-0.0947-0.25095-0.27936-0.48769-0.17992-0.24148-0.49242-0.39773-0.3125-0.15625-0.80019-0.15625-0.66761 0-1.1127 0.30776-0.44034 0.30303-0.44034 0.77178 0 0.41667 0.30303 0.65814 0.30303 0.24148 0.94697 0.40246l1.0795 0.26515q0.97538 0.23674 1.4536 0.72443 0.47822 0.48295 0.47822 1.2453 0 0.625-0.35985 1.1174-0.35511 0.49242-0.99432 0.77651-0.6392 0.28409-1.4867 0.28409-1.1127 0-1.8419-0.48295-0.72916-0.48295-0.92329-1.411l1.0606-0.26515q0.15151 0.58712 0.57292 0.88068 0.42614 0.29356 1.1127 0.29356 0.78125 0 1.2405-0.33144 0.46401-0.33617 0.46401-0.80492 0-0.37879-0.26515-0.63447-0.26515-0.26042-0.81439-0.38826l-1.2121-0.28409q-0.99905-0.23674-1.4678-0.7339-0.46401-0.50189-0.46401-1.2547 0-0.61553 0.34564-1.089 0.35038-0.47348 0.9517-0.74337 0.60606-0.26988 1.3731-0.26988 1.0795 0 1.6951 0.47348 0.62026 0.47348 0.88068 1.25z" style="shape-inside:url(#rect30620);white-space:pre"/>
    <path d="m69.442-63.576v-7.2727h1.1174v7.2727zm0.56818-8.4848q-0.3267 0-0.56345-0.22254-0.23201-0.22254-0.23201-0.53504 0-0.3125 0.23201-0.53504 0.23674-0.22254 0.56345-0.22254t0.55871 0.22254q0.23674 0.22254 0.23674 0.53504 0 0.3125-0.23674 0.53504-0.23201 0.22254-0.55871 0.22254z" style="shape-inside:url(#rect30620);white-space:pre"/>
    <path d="m75.559-63.425q-0.98485 0-1.7282-0.46875-0.73863-0.46875-1.1553-1.3115-0.41193-0.8428-0.41193-1.9697 0-1.1364 0.41193-1.9839 0.41667-0.84754 1.1553-1.3163 0.74337-0.46875 1.7282-0.46875t1.7235 0.46875q0.74337 0.46875 1.1553 1.3163 0.41667 0.84754 0.41667 1.9839 0 1.1269-0.41667 1.9697-0.41193 0.8428-1.1553 1.3115-0.73864 0.46875-1.7235 0.46875zm0-1.0038q0.7481 0 1.2311-0.38352t0.71496-1.0085q0.23201-0.625 0.23201-1.3542 0-0.72916-0.23201-1.3589-0.23201-0.62973-0.71496-1.018-0.48295-0.38826-1.2311-0.38826-0.7481 0-1.2311 0.38826-0.48295 0.38826-0.71496 1.018-0.23201 0.62973-0.23201 1.3589 0 0.72916 0.23201 1.3542 0.23201 0.625 0.71496 1.0085t1.2311 0.38352z" style="shape-inside:url(#rect30620);white-space:pre"/>
    <path d="m81.677-67.951v4.375h-1.1174v-7.2727h1.0795v1.1364h0.0947q0.25568-0.55398 0.77651-0.89015 0.52083-0.34091 1.3447-0.34091 0.73864 0 1.2926 0.30303 0.55398 0.2983 0.86174 0.90909 0.30776 0.60606 0.30776 1.5341v4.6212h-1.1174v-4.5454q0-0.857-0.44508-1.3352-0.44507-0.48295-1.2216-0.48295-0.53504 0-0.95644 0.23201-0.41666 0.23201-0.65814 0.67708-0.24148 0.44507-0.24148 1.0795z" style="shape-inside:url(#rect30620);white-space:pre"/>
    <path d="m91.412-63.425q-1.0511 0-1.8134-0.46401-0.75757-0.46875-1.1695-1.3068-0.4072-0.8428-0.4072-1.9602 0-1.1174 0.4072-1.9697 0.41193-0.85701 1.1458-1.3352 0.73863-0.48295 1.7235-0.48295 0.56818 0 1.1222 0.18939 0.55398 0.18939 1.0085 0.61553 0.45454 0.4214 0.72443 1.1174 0.26988 0.69602 0.26988 1.714v0.47348h-5.606v-0.96591h4.4697q0-0.61553-0.24621-1.0985-0.24148-0.48295-0.69129-0.76231-0.44508-0.27936-1.0511-0.27936-0.66761 0-1.1553 0.33144-0.48295 0.3267-0.74337 0.85227t-0.26042 1.1269v0.64394q0 0.82386 0.28409 1.3968 0.28882 0.56818 0.80019 0.86648 0.51136 0.29356 1.1884 0.29356 0.44034 0 0.79545-0.12311 0.35985-0.12784 0.62026-0.37879 0.26042-0.25568 0.40246-0.63447l1.0795 0.30303q-0.17045 0.54924-0.57292 0.96591-0.40246 0.41193-0.99432 0.64394-0.59185 0.22727-1.3305 0.22727z" style="shape-inside:url(#rect30620);white-space:pre"/>
    <path d="m96.128-63.576v-7.2727h1.0795v1.0985h0.07576q0.19886-0.53977 0.7197-0.87594 0.52083-0.33617 1.1742-0.33617 0.1231 0 0.30776 0.0047t0.27936 0.0142v1.1364q-0.05682-0.0142-0.26042-0.04261-0.19886-0.03314-0.4214-0.03314-0.5303 0-0.94697 0.22254-0.41193 0.2178-0.65341 0.60606-0.23674 0.38352-0.23674 0.87594v4.6023z" style="shape-inside:url(#rect30620);white-space:pre"/>
   </g>
   <g transform="translate(-34.814 608.15)" style="shape-inside:url(#rect71964);white-space:pre" aria-label="1">
    <path d="m124-441.9v7.7576h-0.9394v-6.7728h-0.0455l-1.894 1.2576v-0.95455l1.9394-1.2879z" fill="#000" style="shape-inside:url(#rect71964);white-space:pre"/>
   </g>
   <g transform="translate(-15.554 608.15)" style="shape-inside:url(#rect83352);white-space:pre" aria-label="2">
    <path d="m121.27-434.15v-0.68182l2.5606-2.803q0.45076-0.49243 0.74243-0.85607 0.29167-0.36742 0.43182-0.68939 0.14394-0.32576 0.14394-0.68182 0-0.40909-0.19697-0.70834-0.19318-0.29924-0.53031-0.46212-0.33712-0.16288-0.75757-0.16288-0.44697 0-0.78031 0.18561-0.32955 0.18182-0.51136 0.51136-0.17803 0.32955-0.17803 0.77273h-0.89395q0-0.68182 0.3144-1.197 0.31439-0.51515 0.85606-0.80303 0.54546-0.28788 1.2235-0.28788 0.68182 0 1.2083 0.28788 0.52651 0.28788 0.82576 0.77651 0.29924 0.48864 0.29924 1.0871 0 0.42803-0.1553 0.83712-0.15152 0.40531-0.53031 0.90531-0.375 0.49621-1.0417 1.2121l-1.7424 1.8636v0.0606h3.6061v0.83334z" fill="#000" style="shape-inside:url(#rect83352);white-space:pre"/>
   </g>
   <g transform="translate(4.8245 608.15)" style="shape-inside:url(#rect85282);white-space:pre" aria-label="3">
    <path d="m123.89-434.04q-0.75 0-1.3371-0.25758-0.58333-0.25757-0.92803-0.71591-0.34091-0.46212-0.37121-1.072h0.95455q0.0303 0.375 0.25757 0.64773 0.22728 0.26894 0.5947 0.41666 0.36743 0.14773 0.8144 0.14773 0.5 0 0.88636-0.17424 0.38637-0.17424 0.60607-0.48485t0.2197-0.7197q0-0.42803-0.21213-0.75379-0.21212-0.32955-0.62121-0.51515-0.40909-0.18561-1-0.18561h-0.62122v-0.83334h0.62122q0.46212 0 0.8106-0.16666 0.35228-0.16667 0.54925-0.4697 0.20076-0.30303 0.20076-0.71212 0-0.39395-0.17425-0.68561-0.17424-0.29167-0.49242-0.45455-0.3144-0.16288-0.74243-0.16288-0.40151 0-0.75758 0.14773-0.35227 0.14394-0.57576 0.42045-0.22348 0.27273-0.24242 0.6591h-0.90909q0.0227-0.60985 0.36742-1.0682 0.3447-0.46212 0.90152-0.7197 0.56061-0.25757 1.2311-0.25757 0.7197 0 1.2349 0.29166 0.51515 0.28788 0.79166 0.76137 0.27652 0.47349 0.27652 1.0227 0 0.65531-0.3447 1.1174-0.34091 0.46212-0.92803 0.64015v0.0606q0.73485 0.12121 1.1477 0.625 0.41288 0.5 0.41288 1.2386 0 0.63258-0.3447 1.1364-0.34091 0.5-0.93182 0.78788t-1.3447 0.28788z" fill="#000" style="shape-inside:url(#rect85282);white-space:pre"/>
   </g>
   <g transform="translate(25.203 608.15)" style="shape-inside:url(#rect86358);white-space:pre" aria-label="4">
    <path d="m121.09-435.74v-0.77273l3.4091-5.394h0.56061v1.197h-0.37879l-2.5758 4.0758v0.0606h4.5909v0.83333zm3.6515 1.5909v-7.7576h0.89394v7.7576z" fill="#000" style="shape-inside:url(#rect86358);white-space:pre"/>
   </g>
   <g transform="translate(46.75 608.15)" style="shape-inside:url(#rect86464);white-space:pre" aria-label="5">
    <path d="m123.69-434.04q-0.66667 0-1.2008-0.26515-0.53409-0.26516-0.85606-0.72728-0.32198-0.46212-0.35228-1.053h0.9091q0.053 0.52651 0.47727 0.87121 0.42803 0.34091 1.0227 0.34091 0.47727 0 0.84849-0.22348 0.375-0.22349 0.58712-0.61364 0.21591-0.39394 0.21591-0.89016 0-0.50757-0.22349-0.9053-0.21969-0.40152-0.60606-0.63258-0.38636-0.23106-0.88258-0.23485-0.35606-4e-3 -0.73106 0.10985-0.375 0.10985-0.61743 0.28409l-0.87879-0.10606 0.4697-3.8182h4.0303v0.83333h-3.2424l-0.27272 2.2879h0.0454q0.23864-0.1894 0.59849-0.3144t0.75-0.125q0.71212 0 1.2689 0.34091 0.56061 0.33713 0.87879 0.92425 0.32197 0.58712 0.32197 1.3409 0 0.74243-0.33333 1.3258-0.32955 0.57955-0.90909 0.91667-0.57955 0.33334-1.3182 0.33334z" fill="#000" style="shape-inside:url(#rect86464);white-space:pre"/>
   </g>
  </g>
  <path d="m74.209 24.922h120.71c1.4906 0 2.6906 1.2 2.6906 2.6906v17.121c0 1.4906-1.2 2.6906-2.6906 2.6906h-120.71c-1.4906 0-2.6906-1.2-2.6906-2.6906v-17.121c0-1.4906 1.2-2.6906 2.6906-2.6906z" fill="#1a1a1a" stroke="#fff" stroke-width=".6"/>
 </g>
 <g fill="#fff">
  <path d="m435.04 15.081h-171.48c-3.2636 0-5.9093 5.2831-5.9093 11.8v223.89c0 6.517 2.6457 11.8 5.9093 11.8h171.48c3.2633 0 5.9092-5.283 5.9092-11.8v-223.89c0-6.517-2.6459-11.8-5.9092-11.8z" stroke-width=".6307"/>
  <g stroke="#000">
   <path d="m269.67 31.253h117.56v19.508h-117.56z" stroke-width=".5741"/>
   <path d="m387.26 31.325h47.368v9.4979h-47.368z" stroke-width=".51262"/>
   <g stroke-width=".5146">
    <path d="m425.16 40.823h9.4649v9.7739h-9.4649z"/>
    <path d="m415.7 40.823h9.465v9.7739h-9.465z"/>
    <path d="m406.23 40.823h9.4649v9.7739h-9.4649z"/>
    <path d="m396.77 40.823h9.4649v9.7739h-9.4649z"/>
    <path d="m387.26 40.915h9.4649v9.7739h-9.4649z"/>
    <path d="m262.56 31.253h7.3538v19.508h-7.3538z"/>
   </g>
  </g>
 </g>
 <g fill="#000">
  <g transform="matrix(1.0292 0 0 1.0292 57.765 100.69)" style="shape-inside:url(#rect28732);white-space:pre" aria-label="Pertanyaan">
   <path d="m247.25-59.814q0 0.58-0.4 0.96667-0.39334 0.38-1.2067 0.38h-0.89333v1.94h-0.60667v-4.6467h1.5q0.78667 0 1.1933 0.38 0.41334 0.38 0.41334 0.98zm-1.6067 0.84667q0.50667 0 0.74667-0.22t0.24-0.62667q0-0.86-0.98667-0.86h-0.89333v1.7067z"/>
   <path d="m251.34-58.494q0 0.17333-0.02 0.36667h-2.92q0.0333 0.54 0.36666 0.84667 0.34 0.3 0.82 0.3 0.39334 0 0.65334-0.18 0.26667-0.18667 0.37333-0.49333h0.65334q-0.14667 0.52667-0.58667 0.86-0.44 0.32667-1.0933 0.32667-0.52 0-0.93333-0.23333-0.40667-0.23333-0.64-0.66-0.23333-0.43333-0.23333-1t0.22666-0.99333q0.22667-0.42667 0.63334-0.65333 0.41333-0.23333 0.94666-0.23333 0.52001 0 0.92001 0.22667 0.4 0.22667 0.61333 0.62667 0.22 0.39333 0.22 0.89333zm-0.62667-0.12667q0-0.34667-0.15333-0.59333-0.15333-0.25333-0.42-0.38-0.26-0.13333-0.58-0.13333-0.46 0-0.78667 0.29333-0.32 0.29333-0.36667 0.81333z"/>
   <path d="m252.75-59.587q0.16-0.31333 0.45334-0.48667 0.3-0.17333 0.72666-0.17333v0.62667h-0.16q-1.02 0-1.02 1.1067v1.9867h-0.60667v-3.6533h0.60667z"/>
   <path d="m255.37-59.681v2.1533q0 0.26667 0.11333 0.38 0.11333 0.10667 0.39333 0.10667h0.44667v0.51333h-0.54667q-0.50666 0-0.76-0.23333-0.25333-0.23333-0.25333-0.76667v-2.1533h-0.47333v-0.5h0.47333v-0.92h0.60667v0.92h0.95333v0.5z"/>
   <path d="m256.83-58.367q0-0.56 0.22667-0.98 0.22666-0.42667 0.62-0.66 0.4-0.23333 0.88666-0.23333 0.48001 0 0.83334 0.20667 0.35333 0.20667 0.52667 0.52v-0.66667h0.61333v3.6533h-0.61333v-0.68q-0.18 0.32-0.54 0.53333-0.35334 0.20667-0.82667 0.20667-0.48667 0-0.88-0.24-0.39334-0.24-0.62-0.67333-0.22667-0.43333-0.22667-0.98667zm3.0933 0.0067q0-0.41333-0.16667-0.72-0.16667-0.30667-0.45333-0.46667-0.28-0.16667-0.62001-0.16667-0.34 0-0.62 0.16t-0.44666 0.46667q-0.16667 0.30667-0.16667 0.72 0 0.42 0.16667 0.73333 0.16666 0.30667 0.44666 0.47333 0.28 0.16 0.62 0.16 0.34001 0 0.62001-0.16 0.28666-0.16667 0.45333-0.47333 0.16667-0.31333 0.16667-0.72667z"/>
   <path d="m263.34-60.247q0.66667 0 1.08 0.40667 0.41334 0.4 0.41334 1.16v2.1533h-0.60001v-2.0667q0-0.54667-0.27333-0.83333-0.27333-0.29333-0.74667-0.29333-0.48 0-0.76666 0.3-0.28 0.3-0.28 0.87333v2.02h-0.60667v-3.6533h0.60667v0.52q0.18-0.28 0.48666-0.43333 0.31334-0.15333 0.68667-0.15333z"/>
   <path d="m268.97-60.181-2.2 5.3733h-0.62667l0.72001-1.76-1.4733-3.6133h0.67333l1.1467 2.96 1.1333-2.96z"/>
   <path d="m269.35-58.367q0-0.56 0.22667-0.98 0.22667-0.42667 0.62-0.66 0.4-0.23333 0.88667-0.23333 0.48 0 0.83333 0.20667 0.35333 0.20667 0.52667 0.52v-0.66667h0.61333v3.6533h-0.61333v-0.68q-0.18 0.32-0.54 0.53333-0.35334 0.20667-0.82667 0.20667-0.48667 0-0.88-0.24t-0.62-0.67333q-0.22667-0.43333-0.22667-0.98667zm3.0933 0.0067q0-0.41333-0.16667-0.72-0.16667-0.30667-0.45333-0.46667-0.28-0.16667-0.62-0.16667t-0.62 0.16-0.44667 0.46667q-0.16667 0.30667-0.16667 0.72 0 0.42 0.16667 0.73333 0.16667 0.30667 0.44667 0.47333 0.28 0.16 0.62 0.16t0.62-0.16q0.28666-0.16667 0.45333-0.47333 0.16667-0.31333 0.16667-0.72667z"/>
   <path d="m273.86-58.367q0-0.56 0.22667-0.98 0.22667-0.42667 0.62-0.66 0.4-0.23333 0.88667-0.23333 0.48 0 0.83333 0.20667 0.35334 0.20667 0.52667 0.52v-0.66667h0.61333v3.6533h-0.61333v-0.68q-0.18 0.32-0.54 0.53333-0.35334 0.20667-0.82667 0.20667-0.48667 0-0.88-0.24t-0.62-0.67333q-0.22667-0.43333-0.22667-0.98667zm3.0933 0.0067q0-0.41333-0.16667-0.72-0.16666-0.30667-0.45333-0.46667-0.28-0.16667-0.62-0.16667t-0.62 0.16-0.44667 0.46667q-0.16667 0.30667-0.16667 0.72 0 0.42 0.16667 0.73333 0.16667 0.30667 0.44667 0.47333 0.28 0.16 0.62 0.16t0.62-0.16q0.28667-0.16667 0.45333-0.47333 0.16667-0.31333 0.16667-0.72667z"/>
   <path d="m280.37-60.247q0.66667 0 1.08 0.40667 0.41334 0.4 0.41334 1.16v2.1533h-0.6v-2.0667q0-0.54667-0.27334-0.83333-0.27333-0.29333-0.74666-0.29333-0.48 0-0.76667 0.3-0.28 0.3-0.28 0.87333v2.02h-0.60667v-3.6533h0.60667v0.52q0.18-0.28 0.48667-0.43333 0.31333-0.15333 0.68666-0.15333z"/>
  </g>
  <g transform="matrix(1.0292 0 0 1.0292 144.2 96.76)" style="shape-inside:url(#rect84856);white-space:pre" aria-label="Jawaban">
   <path d="m246.49-61.174v3.4333q0 0.57333-0.35333 0.92-0.35334 0.34-0.93334 0.34-0.58666 0-0.94-0.34667-0.35333-0.35333-0.35333-0.96h0.60667q7e-3 0.34 0.17333 0.55333 0.17333 0.21333 0.51333 0.21333t0.50667-0.2q0.16667-0.20667 0.16667-0.52v-3.4333z"/>
   <path d="m247.45-58.367q0-0.56 0.22667-0.98 0.22667-0.42667 0.62-0.66 0.4-0.23333 0.88667-0.23333 0.48 0 0.83333 0.20667 0.35333 0.20667 0.52667 0.52v-0.66667h0.61333v3.6533h-0.61333v-0.68q-0.18 0.32-0.54 0.53333-0.35334 0.20667-0.82667 0.20667-0.48667 0-0.88-0.24t-0.62-0.67333q-0.22667-0.43333-0.22667-0.98667zm3.0933 0.0067q0-0.41333-0.16667-0.72-0.16667-0.30667-0.45333-0.46667-0.28-0.16667-0.62-0.16667t-0.62 0.16-0.44667 0.46667q-0.16667 0.30667-0.16667 0.72 0 0.42 0.16667 0.73333 0.16667 0.30667 0.44667 0.47333 0.28 0.16 0.62 0.16t0.62-0.16q0.28666-0.16667 0.45333-0.47333 0.16667-0.31333 0.16667-0.72667z"/>
   <path d="m257.05-60.181-1.14 3.6533h-0.62667l-0.88-2.9-0.88 2.9h-0.62666l-1.1467-3.6533h0.62l0.84 3.0667 0.90667-3.0667h0.62l0.88666 3.0733 0.82667-3.0733z"/>
   <path d="m257.43-58.367q0-0.56 0.22667-0.98 0.22667-0.42667 0.62-0.66 0.4-0.23333 0.88667-0.23333 0.48 0 0.83333 0.20667 0.35333 0.20667 0.52667 0.52v-0.66667h0.61333v3.6533h-0.61333v-0.68q-0.18 0.32-0.54 0.53333-0.35334 0.20667-0.82667 0.20667-0.48667 0-0.88-0.24t-0.62-0.67333q-0.22667-0.43333-0.22667-0.98667zm3.0933 0.0067q0-0.41333-0.16667-0.72-0.16667-0.30667-0.45333-0.46667-0.28-0.16667-0.62-0.16667t-0.62 0.16-0.44667 0.46667q-0.16667 0.30667-0.16667 0.72 0 0.42 0.16667 0.73333 0.16667 0.30667 0.44667 0.47333 0.28 0.16 0.62 0.16t0.62-0.16q0.28666-0.16667 0.45333-0.47333 0.16667-0.31333 0.16667-0.72667z"/>
   <path d="m262.77-59.501q0.18666-0.32667 0.54666-0.53333 0.36-0.20667 0.82-0.20667 0.49334 0 0.88667 0.23333 0.39334 0.23333 0.62 0.66 0.22667 0.42 0.22667 0.98 0 0.55333-0.22667 0.98667-0.22666 0.43333-0.62666 0.67333-0.39334 0.24-0.88001 0.24-0.47333 0-0.83333-0.20667-0.35333-0.20667-0.53333-0.52667v0.67333h-0.60667v-4.9333h0.60667zm2.48 1.1333q0-0.41333-0.16667-0.72-0.16666-0.30667-0.45333-0.46667-0.28-0.16-0.62-0.16-0.33334 0-0.62 0.16667-0.28 0.16-0.45334 0.47333-0.16666 0.30667-0.16666 0.71333 0 0.41333 0.16666 0.72667 0.17334 0.30667 0.45334 0.47333 0.28666 0.16 0.62 0.16 0.34 0 0.62-0.16 0.28667-0.16667 0.45333-0.47333 0.16667-0.31333 0.16667-0.73333z"/>
   <path d="m266.44-58.367q0-0.56 0.22666-0.98 0.22667-0.42667 0.62-0.66 0.4-0.23333 0.88667-0.23333 0.48 0 0.83334 0.20667 0.35333 0.20667 0.52666 0.52v-0.66667h0.61334v3.6533h-0.61334v-0.68q-0.18 0.32-0.54 0.53333-0.35333 0.20667-0.82666 0.20667-0.48667 0-0.88001-0.24-0.39333-0.24-0.62-0.67333-0.22666-0.43333-0.22666-0.98667zm3.0933 0.0067q0-0.41333-0.16666-0.72-0.16667-0.30667-0.45334-0.46667-0.28-0.16667-0.62-0.16667t-0.62 0.16-0.44667 0.46667q-0.16666 0.30667-0.16666 0.72 0 0.42 0.16666 0.73333 0.16667 0.30667 0.44667 0.47333 0.28 0.16 0.62 0.16t0.62-0.16q0.28667-0.16667 0.45334-0.47333 0.16666-0.31333 0.16666-0.72667z"/>
   <path d="m272.95-60.247q0.66667 0 1.08 0.40667 0.41333 0.4 0.41333 1.16v2.1533h-0.6v-2.0667q0-0.54667-0.27333-0.83333-0.27333-0.29333-0.74667-0.29333-0.48 0-0.76666 0.3-0.28 0.3-0.28 0.87333v2.02h-0.60667v-3.6533h0.60667v0.52q0.18-0.28 0.48666-0.43333 0.31334-0.15333 0.68667-0.15333z"/>
  </g>
  <g transform="matrix(1.0292 0 0 1.0292 140.34 106.46)" style="shape-inside:url(#rect85396);white-space:pre" aria-label="1">
   <path d="m243.89-60.794v-0.55333h1.2533v4.82h-0.61333v-4.2667z"/>
  </g>
  <g transform="matrix(1.0292 0 0 1.0292 148.75 106.44)" style="shape-inside:url(#rect87176);white-space:pre" aria-label="2">
   <path d="m243.97-57.014q0.84666-0.68 1.3267-1.1133 0.48-0.44 0.80667-0.91333 0.33333-0.48 0.33333-0.94 0-0.43333-0.21333-0.68-0.20667-0.25333-0.67333-0.25333-0.45334 0-0.70667 0.28667-0.24667 0.28-0.26667 0.75333h-0.58666q0.0267-0.74667 0.45333-1.1533 0.42667-0.40667 1.1-0.40667 0.68667 0 1.0867 0.38 0.40666 0.38 0.40666 1.0467 0 0.55333-0.33333 1.08-0.32667 0.52-0.74667 0.92-0.42 0.39333-1.0733 0.92h2.2933v0.50667h-3.2067z"/>
  </g>
  <g transform="matrix(1.0292 0 0 1.0292 158.24 106.4)" style="shape-inside:url(#rect89840);white-space:pre" aria-label="3">
   <path d="m244.03-60.134q0.0467-0.61333 0.47333-0.96 0.42667-0.34667 1.1067-0.34667 0.45333 0 0.78 0.16667 0.33333 0.16 0.5 0.44 0.17333 0.28 0.17333 0.63333 0 0.41333-0.24 0.71333-0.23333 0.3-0.61333 0.38667v0.03333q0.43333 0.10667 0.68666 0.42 0.25334 0.31333 0.25334 0.82 0 0.38-0.17334 0.68667-0.17333 0.3-0.52 0.47333-0.34666 0.17333-0.83333 0.17333-0.70667 0-1.16-0.36667-0.45333-0.37333-0.50667-1.0533h0.58667q0.0467 0.4 0.32667 0.65333 0.28 0.25333 0.74666 0.25333 0.46667 0 0.70667-0.24 0.24667-0.24667 0.24667-0.63333 0-0.5-0.33334-0.72-0.33333-0.22-1.0067-0.22h-0.15334v-0.50667h0.16q0.61334-0.0067 0.92667-0.2 0.31333-0.2 0.31333-0.61333 0-0.35333-0.23333-0.56667-0.22667-0.21333-0.65333-0.21333-0.41334 0-0.66667 0.21333-0.25333 0.21333-0.3 0.57333z"/>
  </g>
  <g transform="matrix(1.0292 0 0 1.0292 167.49 106.34)" style="shape-inside:url(#rect89948);white-space:pre" aria-label="4">
   <path d="m243.9-57.601v-0.46l2.34-3.24h0.72667v3.1733h0.66667v0.52667h-0.66667v1.0733h-0.6v-1.0733zm2.4933-3.0667-1.7933 2.54h1.7933z"/>
  </g>
  <g transform="matrix(1.0292 0 0 1.0292 176.94 106.36)" style="shape-inside:url(#rect91112);white-space:pre" aria-label="5">
   <path d="m247.12-60.821h-2.34v1.52q0.15334-0.21333 0.45334-0.34667 0.3-0.14 0.64666-0.14 0.55334 0 0.9 0.23333 0.34667 0.22667 0.49334 0.59333 0.15333 0.36 0.15333 0.76667 0 0.48-0.18 0.86t-0.55333 0.6q-0.36667 0.22-0.91334 0.22-0.7 0-1.1333-0.36t-0.52667-0.96h0.59334q0.0867 0.38 0.36666 0.59333 0.28 0.21333 0.70667 0.21333 0.52667 0 0.79333-0.31333 0.26667-0.32 0.26667-0.84t-0.26667-0.8q-0.26666-0.28667-0.78666-0.28667-0.35334 0-0.62 0.17333-0.26 0.16667-0.38 0.46h-0.57334v-2.72h2.9z"/>
  </g>
  <g transform="matrix(1.0292 0 0 1.0292 12.682 101.72)" style="shape-inside:url(#rect91592);white-space:pre" aria-label="#">
   <path d="m247.83-59.594-0.25333 1.2h0.92v0.53333h-1.0333l-0.28666 1.3333h-0.58l0.28666-1.3333h-1.4l-0.28666 1.3333h-0.58l0.28666-1.3333h-1.0467v-0.53333h1.16l0.25333-1.2h-1.0333v-0.53333h1.1467l0.28667-1.3333h0.58l-0.28667 1.3333h1.4l0.28667-1.3333h0.58l-0.28667 1.3333h0.92667v0.53333zm-0.58 0h-1.4l-0.25333 1.2h1.4z"/>
  </g>
 </g>
 <g fill="#fff" stroke="#000">
  <path d="m269.59 50.676h117.73v9.6283h-117.73z" stroke-width=".40362"/>
  <path d="m262.49 50.761h7.4272v9.5431h-7.4272z" stroke-width=".36172"/>
  <g stroke-width=".5146">
   <path d="m425.16 50.597h9.4649v9.7739h-9.4649z"/>
   <path d="m415.7 50.597h9.465v9.7739h-9.465z"/>
   <path d="m406.23 50.597h9.4649v9.7739h-9.4649z"/>
   <path d="m396.77 50.597h9.4649v9.7739h-9.4649z"/>
   <path d="m387.26 50.689h9.4649v9.7739h-9.4649z"/>
  </g>
 </g>
 <path d="m266.19 53.425h0.021c1.2512 0 2.2586 1.0073 2.2586 2.2586 0 1.2513-1.0073 2.2586-2.2586 2.2586h-0.021c-1.2513 0-2.2586-1.0073-2.2586-2.2586 0-1.2513 1.0073-2.2586 2.2586-2.2586z" fill="#1a1a1a" stroke="#000" stroke-width=".039276"/>
 <path d="m274.84 53.485h75.182c0.6187 0 1.1168 0.49809 1.1168 1.1168v2.1628c0 0.6187-0.49811 1.1168-1.1168 1.1168h-75.182c-0.6187 0-1.1168-0.49809-1.1168-1.1168v-2.1628c0-0.6187 0.4981-1.1168 1.1168-1.1168z" fill="#1a1a1a" stroke="#000" stroke-width=".16003"/>
 <g fill="#fff" stroke="#000" stroke-width=".30876">
  <path d="m395.22 55.576a3.2297 3.2297 0 0 1-3.2297 3.2297 3.2297 3.2297 0 0 1-3.2297-3.2297 3.2297 3.2297 0 0 1 3.2297-3.2297 3.2297 3.2297 0 0 1 3.2297 3.2297z"/>
  <path d="m404.73 55.484a3.2297 3.2297 0 0 1-3.2297 3.2297 3.2297 3.2297 0 0 1-3.2297-3.2297 3.2297 3.2297 0 0 1 3.2297-3.2297 3.2297 3.2297 0 0 1 3.2297 3.2297z"/>
  <path d="m414.2 55.484a3.2297 3.2297 0 0 1-3.2297 3.2297 3.2297 3.2297 0 0 1-3.2297-3.2297 3.2297 3.2297 0 0 1 3.2297-3.2297 3.2297 3.2297 0 0 1 3.2297 3.2297z"/>
  <path d="m433.13 55.484a3.2297 3.2297 0 0 1-3.2297 3.2297 3.2297 3.2297 0 0 1-3.2297-3.2297 3.2297 3.2297 0 0 1 3.2297-3.2297 3.2297 3.2297 0 0 1 3.2297 3.2297z"/>
 </g>
 <g transform="matrix(1.0292 0 0 1.0292 41.195 34.459)" stroke="#257cfd">
  <path d="m371.61 20.428a3.1381 3.1381 0 0 1-3.1381 3.1381 3.1381 3.1381 0 0 1-3.1381-3.1381 3.1381 3.1381 0 0 1 3.1381-3.1381 3.1381 3.1381 0 0 1 3.1381 3.1381z" fill="#fff" stroke-width=".3"/>
  <path d="m370.4 20.428a1.9204 1.9204 0 0 1-1.9204 1.9204 1.9204 1.9204 0 0 1-1.9204-1.9204 1.9204 1.9204 0 0 1 1.9204-1.9204 1.9204 1.9204 0 0 1 1.9204 1.9204z" fill="#257cfd" stroke-width=".18359"/>
 </g>
 <g fill="#fff" stroke="#000">
  <path d="m269.59 60.45h117.73v9.6283h-117.73z" stroke-width=".40362"/>
  <path d="m262.49 60.535h7.4272v9.5431h-7.4272z" stroke-width=".36172"/>
  <g stroke-width=".5146">
   <path d="m425.16 60.371h9.4649v9.7739h-9.4649z"/>
   <path d="m415.7 60.371h9.465v9.7739h-9.465z"/>
   <path d="m406.23 60.371h9.4649v9.7739h-9.4649z"/>
   <path d="m396.77 60.371h9.4649v9.7739h-9.4649z"/>
   <path d="m387.26 60.463h9.4649v9.7739h-9.4649z"/>
  </g>
 </g>
 <path d="m266.19 63.198h0.021c1.2512 0 2.2586 1.0073 2.2586 2.2586 0 1.2513-1.0073 2.2586-2.2586 2.2586h-0.021c-1.2513 0-2.2586-1.0073-2.2586-2.2586 0-1.2513 1.0073-2.2586 2.2586-2.2586z" fill="#1a1a1a" stroke="#000" stroke-width=".039276"/>
 <path d="m274.84 63.25h58.815c0.62117 0 1.1213 0.50009 1.1213 1.1213v2.1715c0 0.62118-0.50009 1.1213-1.1213 1.1213h-58.815c-0.62119 0-1.1213-0.50009-1.1213-1.1213v-2.1715c0-0.62118 0.50009-1.1213 1.1213-1.1213z" fill="#1a1a1a" stroke="#000" stroke-width=".14241"/>
 <g fill="#fff" stroke="#000">
  <g stroke-width=".30876">
   <path d="m395.22 65.35a3.2297 3.2297 0 0 1-3.2297 3.2297 3.2297 3.2297 0 0 1-3.2297-3.2297 3.2297 3.2297 0 0 1 3.2297-3.2297 3.2297 3.2297 0 0 1 3.2297 3.2297z"/>
   <path d="m404.73 65.258a3.2297 3.2297 0 0 1-3.2297 3.2297 3.2297 3.2297 0 0 1-3.2297-3.2297 3.2297 3.2297 0 0 1 3.2297-3.2297 3.2297 3.2297 0 0 1 3.2297 3.2297z"/>
   <path d="m414.2 65.258a3.2297 3.2297 0 0 1-3.2297 3.2297 3.2297 3.2297 0 0 1-3.2297-3.2297 3.2297 3.2297 0 0 1 3.2297-3.2297 3.2297 3.2297 0 0 1 3.2297 3.2297z"/>
   <path d="m423.66 65.258a3.2297 3.2297 0 0 1-3.2297 3.2297 3.2297 3.2297 0 0 1-3.2297-3.2297 3.2297 3.2297 0 0 1 3.2297-3.2297 3.2297 3.2297 0 0 1 3.2297 3.2297z"/>
  </g>
  <path d="m269.59 70.223h117.73v9.6283h-117.73z" stroke-width=".40362"/>
  <path d="m262.49 70.309h7.4272v9.5431h-7.4272z" stroke-width=".36172"/>
  <g stroke-width=".5146">
   <path d="m425.16 70.145h9.4649v9.7739h-9.4649z"/>
   <path d="m415.7 70.145h9.465v9.7739h-9.465z"/>
   <path d="m406.23 70.145h9.4649v9.7739h-9.4649z"/>
   <path d="m396.77 70.145h9.4649v9.7739h-9.4649z"/>
   <path d="m387.26 70.237h9.4649v9.7739h-9.4649z"/>
  </g>
 </g>
 <path d="m266.19 72.972h0.021c1.2512 0 2.2586 1.0073 2.2586 2.2586s-1.0073 2.2586-2.2586 2.2586h-0.021c-1.2513 0-2.2586-1.0073-2.2586-2.2586s1.0073-2.2586 2.2586-2.2586z" fill="#1a1a1a" stroke="#000" stroke-width=".039276"/>
 <path d="m274.84 73.037h83.829c0.6175 0 1.1146 0.49712 1.1146 1.1146v2.1586c0 0.6175-0.49712 1.1146-1.1146 1.1146h-83.829c-0.6175 0-1.1146-0.49712-1.1146-1.1146v-2.1586c0-0.6175 0.49712-1.1146 1.1146-1.1146z" fill="#1a1a1a" stroke="#000" stroke-width=".16857"/>
 <g fill="#fff" stroke="#000">
  <g stroke-width=".30876">
   <path d="m395.22 75.124a3.2297 3.2297 0 0 1-3.2297 3.2297 3.2297 3.2297 0 0 1-3.2297-3.2297 3.2297 3.2297 0 0 1 3.2297-3.2297 3.2297 3.2297 0 0 1 3.2297 3.2297z"/>
   <path d="m404.73 75.032a3.2297 3.2297 0 0 1-3.2297 3.2297 3.2297 3.2297 0 0 1-3.2297-3.2297 3.2297 3.2297 0 0 1 3.2297-3.2297 3.2297 3.2297 0 0 1 3.2297 3.2297z"/>
   <path d="m414.2 75.032a3.2297 3.2297 0 0 1-3.2297 3.2297 3.2297 3.2297 0 0 1-3.2297-3.2297 3.2297 3.2297 0 0 1 3.2297-3.2297 3.2297 3.2297 0 0 1 3.2297 3.2297z"/>
   <path d="m433.13 75.032a3.2297 3.2297 0 0 1-3.2297 3.2297 3.2297 3.2297 0 0 1-3.2297-3.2297 3.2297 3.2297 0 0 1 3.2297-3.2297 3.2297 3.2297 0 0 1 3.2297 3.2297z"/>
  </g>
  <path d="m269.59 79.997h117.73v9.6283h-117.73z" stroke-width=".40362"/>
  <path d="m262.49 80.083h7.4272v9.5431h-7.4272z" stroke-width=".36172"/>
  <g stroke-width=".5146">
   <path d="m425.16 79.919h9.4649v9.7739h-9.4649z"/>
   <path d="m415.7 79.919h9.465v9.7739h-9.465z"/>
   <path d="m406.23 79.919h9.4649v9.7739h-9.4649z"/>
   <path d="m396.77 79.919h9.4649v9.7739h-9.4649z"/>
   <path d="m387.26 80.011h9.4649v9.7739h-9.4649z"/>
  </g>
 </g>
 <path d="m266.19 82.746h0.021c1.2512 0 2.2586 1.0073 2.2586 2.2586 0 1.2513-1.0073 2.2586-2.2586 2.2586h-0.021c-1.2513 0-2.2586-1.0073-2.2586-2.2586 0-1.2513 1.0073-2.2586 2.2586-2.2586z" fill="#1a1a1a" stroke="#000" stroke-width=".039276"/>
 <path d="m274.84 82.813h87.844c0.61698 0 1.1137 0.49669 1.1137 1.1137v2.1568c0 0.61697-0.49669 1.1137-1.1137 1.1137h-87.844c-0.61697 0-1.1137-0.49669-1.1137-1.1137v-2.1568c0-0.61697 0.49669-1.1137 1.1137-1.1137z" fill="#1a1a1a" stroke="#000" stroke-width=".17238"/>
 <g fill="#fff" stroke="#000">
  <g stroke-width=".30876">
   <path d="m395.22 84.898a3.2297 3.2297 0 0 1-3.2297 3.2297 3.2297 3.2297 0 0 1-3.2297-3.2297 3.2297 3.2297 0 0 1 3.2297-3.2297 3.2297 3.2297 0 0 1 3.2297 3.2297z"/>
   <path d="m404.73 84.806a3.2297 3.2297 0 0 1-3.2297 3.2297 3.2297 3.2297 0 0 1-3.2297-3.2297 3.2297 3.2297 0 0 1 3.2297-3.2297 3.2297 3.2297 0 0 1 3.2297 3.2297z"/>
   <path d="m423.66 84.806a3.2297 3.2297 0 0 1-3.2297 3.2297 3.2297 3.2297 0 0 1-3.2297-3.2297 3.2297 3.2297 0 0 1 3.2297-3.2297 3.2297 3.2297 0 0 1 3.2297 3.2297z"/>
   <path d="m433.13 84.806a3.2297 3.2297 0 0 1-3.2297 3.2297 3.2297 3.2297 0 0 1-3.2297-3.2297 3.2297 3.2297 0 0 1 3.2297-3.2297 3.2297 3.2297 0 0 1 3.2297 3.2297z"/>
  </g>
  <path d="m269.59 89.626h117.73v9.6283h-117.73z" stroke-width=".40362"/>
  <path d="m262.49 89.711h7.4272v9.5431h-7.4272z" stroke-width=".36172"/>
  <g stroke-width=".5146">
   <path d="m425.16 89.547h9.4649v9.7739h-9.4649z"/>
   <path d="m415.7 89.547h9.465v9.7739h-9.465z"/>
   <path d="m406.23 89.547h9.4649v9.7739h-9.4649z"/>
   <path d="m396.77 89.547h9.4649v9.7739h-9.4649z"/>
   <path d="m387.26 89.639h9.4649v9.7739h-9.4649z"/>
  </g>
 </g>
 <path d="m266.19 92.375h0.021c1.2512 0 2.2586 1.0073 2.2586 2.2586s-1.0073 2.2586-2.2586 2.2586h-0.021c-1.2513 0-2.2586-1.0073-2.2586-2.2586s1.0073-2.2586 2.2586-2.2586z" fill="#1a1a1a" stroke="#000" stroke-width=".039276"/>
 <path d="m274.84 92.428h62.52c0.62059 0 1.1202 0.49961 1.1202 1.1202v2.1694c0 0.6206-0.49961 1.1202-1.1202 1.1202h-62.52c-0.62059 0-1.1202-0.49961-1.1202-1.1202v-2.1694c0-0.6206 0.49962-1.1202 1.1202-1.1202z" fill="#1a1a1a" stroke="#000" stroke-width=".14659"/>
 <g fill="#fff" stroke="#000">
  <g stroke-width=".30876">
   <path d="m395.22 94.526a3.2297 3.2297 0 0 1-3.2297 3.2297 3.2297 3.2297 0 0 1-3.2297-3.2297 3.2297 3.2297 0 0 1 3.2297-3.2297 3.2297 3.2297 0 0 1 3.2297 3.2297z"/>
   <path d="m404.73 94.434a3.2297 3.2297 0 0 1-3.2297 3.2297 3.2297 3.2297 0 0 1-3.2297-3.2297 3.2297 3.2297 0 0 1 3.2297-3.2297 3.2297 3.2297 0 0 1 3.2297 3.2297z"/>
   <path d="m423.66 94.434a3.2297 3.2297 0 0 1-3.2297 3.2297 3.2297 3.2297 0 0 1-3.2297-3.2297 3.2297 3.2297 0 0 1 3.2297-3.2297 3.2297 3.2297 0 0 1 3.2297 3.2297z"/>
   <path d="m433.13 94.434a3.2297 3.2297 0 0 1-3.2297 3.2297 3.2297 3.2297 0 0 1-3.2297-3.2297 3.2297 3.2297 0 0 1 3.2297-3.2297 3.2297 3.2297 0 0 1 3.2297 3.2297z"/>
  </g>
  <path d="m269.59 99.254h117.73v9.6283h-117.73z" stroke-width=".40362"/>
  <path d="m262.49 99.339h7.4272v9.5431h-7.4272z" stroke-width=".36172"/>
  <g stroke-width=".5146">
   <path d="m425.16 99.175h9.4649v9.7739h-9.4649z"/>
   <path d="m415.7 99.175h9.465v9.7739h-9.465z"/>
   <path d="m406.23 99.175h9.4649v9.7739h-9.4649z"/>
   <path d="m396.77 99.175h9.4649v9.7739h-9.4649z"/>
   <path d="m387.26 99.267h9.4649v9.7739h-9.4649z"/>
  </g>
 </g>
 <path d="m266.19 102h0.021c1.2512 0 2.2586 1.0073 2.2586 2.2586 0 1.2513-1.0073 2.2586-2.2586 2.2586h-0.021c-1.2513 0-2.2586-1.0073-2.2586-2.2586 0-1.2512 1.0073-2.2586 2.2586-2.2586z" fill="#1a1a1a" stroke="#000" stroke-width=".039276"/>
 <path d="m274.83 102.04h38.744c0.62475 0 1.1277 0.50297 1.1277 1.1277v2.184c0 0.62475-0.50295 1.1277-1.1277 1.1277h-38.744c-0.62475 0-1.1277-0.50296-1.1277-1.1277v-2.184c0-0.62475 0.50297-1.1277 1.1277-1.1277z" fill="#1a1a1a" stroke="#000" stroke-width=".11703"/>
 <g fill="#fff" stroke="#000">
  <g stroke-width=".30876">
   <path d="m395.22 104.15a3.2297 3.2297 0 0 1-3.2297 3.2297 3.2297 3.2297 0 0 1-3.2297-3.2297 3.2297 3.2297 0 0 1 3.2297-3.2297 3.2297 3.2297 0 0 1 3.2297 3.2297z"/>
   <path d="m404.73 104.06a3.2297 3.2297 0 0 1-3.2297 3.2297 3.2297 3.2297 0 0 1-3.2297-3.2297 3.2297 3.2297 0 0 1 3.2297-3.2297 3.2297 3.2297 0 0 1 3.2297 3.2297z"/>
   <path d="m414.2 104.06a3.2297 3.2297 0 0 1-3.2297 3.2297 3.2297 3.2297 0 0 1-3.2297-3.2297 3.2297 3.2297 0 0 1 3.2297-3.2297 3.2297 3.2297 0 0 1 3.2297 3.2297z"/>
   <path d="m423.66 104.06a3.2297 3.2297 0 0 1-3.2297 3.2297 3.2297 3.2297 0 0 1-3.2297-3.2297 3.2297 3.2297 0 0 1 3.2297-3.2297 3.2297 3.2297 0 0 1 3.2297 3.2297z"/>
  </g>
  <path d="m269.59 108.88h117.73v9.6283h-117.73z" stroke-width=".40362"/>
  <path d="m262.49 108.97h7.4272v9.5431h-7.4272z" stroke-width=".36172"/>
  <g stroke-width=".5146">
   <path d="m425.16 108.8h9.4649v9.7739h-9.4649z"/>
   <path d="m415.7 108.8h9.465v9.7739h-9.465z"/>
   <path d="m406.23 108.8h9.4649v9.7739h-9.4649z"/>
   <path d="m396.77 108.8h9.4649v9.7739h-9.4649z"/>
   <path d="m387.26 108.9h9.4649v9.7739h-9.4649z"/>
  </g>
 </g>
 <path d="m266.19 111.63h0.021c1.2512 0 2.2586 1.0073 2.2586 2.2586s-1.0073 2.2586-2.2586 2.2586h-0.021c-1.2513 0-2.2586-1.0073-2.2586-2.2586s1.0073-2.2586 2.2586-2.2586z" fill="#1a1a1a" stroke="#000" stroke-width=".039276"/>
 <path d="m274.84 111.69h68.388c0.61971 0 1.1186 0.4989 1.1186 1.1186v2.1663c0 0.6197-0.49889 1.1186-1.1186 1.1186h-68.388c-0.61969 0-1.1186-0.4989-1.1186-1.1186v-2.1663c0-0.61969 0.4989-1.1186 1.1186-1.1186z" fill="#1a1a1a" stroke="#000" stroke-width=".15298"/>
 <g fill="#fff" stroke="#000">
  <g stroke-width=".30876">
   <path d="m395.22 113.78a3.2297 3.2297 0 0 1-3.2297 3.2297 3.2297 3.2297 0 0 1-3.2297-3.2297 3.2297 3.2297 0 0 1 3.2297-3.2297 3.2297 3.2297 0 0 1 3.2297 3.2297z"/>
   <path d="m404.73 113.69a3.2297 3.2297 0 0 1-3.2297 3.2297 3.2297 3.2297 0 0 1-3.2297-3.2297 3.2297 3.2297 0 0 1 3.2297-3.2297 3.2297 3.2297 0 0 1 3.2297 3.2297z"/>
   <path d="m414.2 113.69a3.2297 3.2297 0 0 1-3.2297 3.2297 3.2297 3.2297 0 0 1-3.2297-3.2297 3.2297 3.2297 0 0 1 3.2297-3.2297 3.2297 3.2297 0 0 1 3.2297 3.2297z"/>
   <path d="m433.13 113.69a3.2297 3.2297 0 0 1-3.2297 3.2297 3.2297 3.2297 0 0 1-3.2297-3.2297 3.2297 3.2297 0 0 1 3.2297-3.2297 3.2297 3.2297 0 0 1 3.2297 3.2297z"/>
  </g>
  <path d="m269.59 118.66h117.73v9.6283h-117.73z" stroke-width=".40362"/>
  <path d="m262.49 118.74h7.4272v9.5431h-7.4272z" stroke-width=".36172"/>
  <g stroke-width=".5146">
   <path d="m425.16 118.58h9.4649v9.7739h-9.4649z"/>
   <path d="m415.7 118.58h9.465v9.7739h-9.465z"/>
   <path d="m406.23 118.58h9.4649v9.7739h-9.4649z"/>
   <path d="m396.77 118.58h9.4649v9.7739h-9.4649z"/>
   <path d="m387.26 118.67h9.4649v9.774h-9.4649z"/>
  </g>
 </g>
 <path d="m266.19 121.41h0.021c1.2512 0 2.2586 1.0073 2.2586 2.2586s-1.0073 2.2586-2.2586 2.2586h-0.021c-1.2513 0-2.2586-1.0073-2.2586-2.2586s1.0073-2.2586 2.2586-2.2586z" fill="#1a1a1a" stroke="#000" stroke-width=".039276"/>
 <path d="m274.84 121.47h79.505c0.61809 0 1.1157 0.4976 1.1157 1.1157v2.1607c0 0.6181-0.4976 1.1157-1.1157 1.1157h-79.505c-0.61811 0-1.1157-0.4976-1.1157-1.1157v-2.1607c0-0.6181 0.4976-1.1157 1.1157-1.1157z" fill="#1a1a1a" stroke="#000" stroke-width=".16436"/>
 <g fill="#fff" stroke="#000">
  <g stroke-width=".30876">
   <path d="m395.22 123.56a3.2297 3.2297 0 0 1-3.2297 3.2297 3.2297 3.2297 0 0 1-3.2297-3.2297 3.2297 3.2297 0 0 1 3.2297-3.2297 3.2297 3.2297 0 0 1 3.2297 3.2297z"/>
   <path d="m404.73 123.46a3.2297 3.2297 0 0 1-3.2297 3.2297 3.2297 3.2297 0 0 1-3.2297-3.2297 3.2297 3.2297 0 0 1 3.2297-3.2297 3.2297 3.2297 0 0 1 3.2297 3.2297z"/>
   <path d="m414.2 123.46a3.2297 3.2297 0 0 1-3.2297 3.2297 3.2297 3.2297 0 0 1-3.2297-3.2297 3.2297 3.2297 0 0 1 3.2297-3.2297 3.2297 3.2297 0 0 1 3.2297 3.2297z"/>
   <path d="m433.13 123.46a3.2297 3.2297 0 0 1-3.2297 3.2297 3.2297 3.2297 0 0 1-3.2297-3.2297 3.2297 3.2297 0 0 1 3.2297-3.2297 3.2297 3.2297 0 0 1 3.2297 3.2297z"/>
  </g>
  <path d="m269.59 128.43h117.73v9.6283h-117.73z" stroke-width=".40362"/>
  <path d="m262.49 128.52h7.4272v9.5431h-7.4272z" stroke-width=".36172"/>
  <g stroke-width=".5146">
   <path d="m425.16 128.35h9.4649v9.7739h-9.4649z"/>
   <path d="m415.7 128.35h9.465v9.7739h-9.465z"/>
   <path d="m406.23 128.35h9.4649v9.7739h-9.4649z"/>
   <path d="m396.77 128.35h9.4649v9.7739h-9.4649z"/>
   <path d="m387.26 128.44h9.4649v9.7739h-9.4649z"/>
  </g>
 </g>
 <path d="m266.19 131.18h0.021c1.2512 0 2.2586 1.0073 2.2586 2.2586 0 1.2513-1.0073 2.2586-2.2586 2.2586h-0.021c-1.2513 0-2.2586-1.0073-2.2586-2.2586 0-1.2513 1.0073-2.2586 2.2586-2.2586z" fill="#1a1a1a" stroke="#000" stroke-width=".039276"/>
 <path d="m274.82 131.2h21.455c0.62867 0 1.1348 0.5061 1.1348 1.1348v2.1976c0 0.62866-0.5061 1.1348-1.1348 1.1348h-21.455c-0.62866 0-1.1348-0.50611-1.1348-1.1348v-2.1976c0-0.62866 0.5061-1.1348 1.1348-1.1348z" fill="#1a1a1a" stroke="#000" stroke-width=".089302"/>
 <g fill="#fff" stroke="#000">
  <g stroke-width=".30876">
   <path d="m395.22 133.33a3.2297 3.2297 0 0 1-3.2297 3.2297 3.2297 3.2297 0 0 1-3.2297-3.2297 3.2297 3.2297 0 0 1 3.2297-3.2297 3.2297 3.2297 0 0 1 3.2297 3.2297z"/>
   <path d="m404.73 133.24a3.2297 3.2297 0 0 1-3.2297 3.2297 3.2297 3.2297 0 0 1-3.2297-3.2297 3.2297 3.2297 0 0 1 3.2297-3.2297 3.2297 3.2297 0 0 1 3.2297 3.2297z"/>
   <path d="m414.2 133.24a3.2297 3.2297 0 0 1-3.2297 3.2297 3.2297 3.2297 0 0 1-3.2297-3.2297 3.2297 3.2297 0 0 1 3.2297-3.2297 3.2297 3.2297 0 0 1 3.2297 3.2297z"/>
   <path d="m423.66 133.24a3.2297 3.2297 0 0 1-3.2297 3.2297 3.2297 3.2297 0 0 1-3.2297-3.2297 3.2297 3.2297 0 0 1 3.2297-3.2297 3.2297 3.2297 0 0 1 3.2297 3.2297z"/>
  </g>
  <path d="m269.59 138.2h117.73v9.6283h-117.73z" stroke-width=".40362"/>
  <path d="m262.49 138.29h7.4272v9.5431h-7.4272z" stroke-width=".36172"/>
  <g stroke-width=".5146">
   <path d="m425.16 138.13h9.4649v9.774h-9.4649z"/>
   <path d="m415.7 138.13h9.465v9.774h-9.465z"/>
   <path d="m406.23 138.13h9.4649v9.774h-9.4649z"/>
   <path d="m396.77 138.13h9.4649v9.774h-9.4649z"/>
   <path d="m387.26 138.22h9.4649v9.7739h-9.4649z"/>
  </g>
 </g>
 <path d="m266.19 140.95h0.021c1.2512 0 2.2586 1.0073 2.2586 2.2586 0 1.2512-1.0073 2.2586-2.2586 2.2586h-0.021c-1.2513 0-2.2586-1.0073-2.2586-2.2586 0-1.2513 1.0073-2.2586 2.2586-2.2586z" fill="#1a1a1a" stroke="#000" stroke-width=".039276"/>
 <path d="m274.84 141.01h62.212c0.62064 0 1.1203 0.49966 1.1203 1.1203v2.1696c0 0.62064-0.49966 1.1203-1.1203 1.1203h-62.212c-0.62063 0-1.1203-0.49967-1.1203-1.1203v-2.1696c0-0.62064 0.49967-1.1203 1.1203-1.1203z" fill="#1a1a1a" stroke="#000" stroke-width=".14625"/>
 <g fill="#fff" stroke="#000">
  <g stroke-width=".30876">
   <path d="m395.22 143.1a3.2297 3.2297 0 0 1-3.2297 3.2297 3.2297 3.2297 0 0 1-3.2297-3.2297 3.2297 3.2297 0 0 1 3.2297-3.2297 3.2297 3.2297 0 0 1 3.2297 3.2297z"/>
   <path d="m404.73 143.01a3.2297 3.2297 0 0 1-3.2297 3.2297 3.2297 3.2297 0 0 1-3.2297-3.2297 3.2297 3.2297 0 0 1 3.2297-3.2297 3.2297 3.2297 0 0 1 3.2297 3.2297z"/>
   <path d="m423.66 143.01a3.2297 3.2297 0 0 1-3.2297 3.2297 3.2297 3.2297 0 0 1-3.2297-3.2297 3.2297 3.2297 0 0 1 3.2297-3.2297 3.2297 3.2297 0 0 1 3.2297 3.2297z"/>
   <path d="m433.13 143.01a3.2297 3.2297 0 0 1-3.2297 3.2297 3.2297 3.2297 0 0 1-3.2297-3.2297 3.2297 3.2297 0 0 1 3.2297-3.2297 3.2297 3.2297 0 0 1 3.2297 3.2297z"/>
  </g>
  <path d="m269.59 147.83h117.73v9.6283h-117.73z" stroke-width=".40362"/>
  <path d="m262.49 147.92h7.4272v9.5431h-7.4272z" stroke-width=".36172"/>
  <g stroke-width=".5146">
   <path d="m425.16 147.75h9.4649v9.774h-9.4649z"/>
   <path d="m415.7 147.75h9.465v9.774h-9.465z"/>
   <path d="m406.23 147.75h9.4649v9.774h-9.4649z"/>
   <path d="m396.77 147.75h9.4649v9.774h-9.4649z"/>
   <path d="m387.26 147.85h9.4649v9.774h-9.4649z"/>
  </g>
 </g>
 <path d="m266.19 150.58h0.021c1.2512 0 2.2586 1.0073 2.2586 2.2586 0 1.2513-1.0073 2.2586-2.2586 2.2586h-0.021c-1.2513 0-2.2586-1.0073-2.2586-2.2586 0-1.2512 1.0073-2.2586 2.2586-2.2586z" fill="#1a1a1a" stroke="#000" stroke-width=".039276"/>
 <path d="m274.84 150.64h67.153c0.61988 0 1.1189 0.49904 1.1189 1.1189v2.167c0 0.61989-0.49904 1.1189-1.1189 1.1189h-67.153c-0.61988 0-1.1189-0.49904-1.1189-1.1189v-2.167c0-0.61989 0.49904-1.1189 1.1189-1.1189z" fill="#1a1a1a" stroke="#000" stroke-width=".15166"/>
 <g fill="#fff" stroke="#000">
  <g stroke-width=".30876">
   <path d="m395.22 152.73a3.2297 3.2297 0 0 1-3.2297 3.2297 3.2297 3.2297 0 0 1-3.2297-3.2297 3.2297 3.2297 0 0 1 3.2297-3.2297 3.2297 3.2297 0 0 1 3.2297 3.2297z"/>
   <path d="m404.73 152.64a3.2297 3.2297 0 0 1-3.2297 3.2297 3.2297 3.2297 0 0 1-3.2297-3.2297 3.2297 3.2297 0 0 1 3.2297-3.2297 3.2297 3.2297 0 0 1 3.2297 3.2297z"/>
   <path d="m414.2 152.64a3.2297 3.2297 0 0 1-3.2297 3.2297 3.2297 3.2297 0 0 1-3.2297-3.2297 3.2297 3.2297 0 0 1 3.2297-3.2297 3.2297 3.2297 0 0 1 3.2297 3.2297z"/>
   <path d="m433.13 152.64a3.2297 3.2297 0 0 1-3.2297 3.2297 3.2297 3.2297 0 0 1-3.2297-3.2297 3.2297 3.2297 0 0 1 3.2297-3.2297 3.2297 3.2297 0 0 1 3.2297 3.2297z"/>
  </g>
  <path d="m269.59 157.46h117.73v9.6283h-117.73z" stroke-width=".40362"/>
  <path d="m262.49 157.55h7.4272v9.5431h-7.4272z" stroke-width=".36172"/>
  <g stroke-width=".5146">
   <path d="m425.16 157.38h9.4649v9.7739h-9.4649z"/>
   <path d="m415.7 157.38h9.465v9.7739h-9.465z"/>
   <path d="m406.23 157.38h9.4649v9.7739h-9.4649z"/>
   <path d="m396.77 157.38h9.4649v9.7739h-9.4649z"/>
   <path d="m387.26 157.47h9.4649v9.7739h-9.4649z"/>
  </g>
 </g>
 <path d="m266.19 160.21h0.021c1.2512 0 2.2586 1.0073 2.2586 2.2586 0 1.2513-1.0073 2.2586-2.2586 2.2586h-0.021c-1.2513 0-2.2586-1.0073-2.2586-2.2586 0-1.2513 1.0073-2.2586 2.2586-2.2586z" fill="#1a1a1a" stroke="#000" stroke-width=".039276"/>
 <path d="m274.83 160.26h52.33c0.62228 0 1.1232 0.50095 1.1232 1.1232v2.1753c0 0.62226-0.50094 1.1232-1.1232 1.1232h-52.33c-0.62226 0-1.1232-0.50095-1.1232-1.1232v-2.1753c0-0.62227 0.50095-1.1232 1.1232-1.1232z" fill="#1a1a1a" stroke="#000" stroke-width=".13476"/>
 <g fill="#fff" stroke="#000">
  <g stroke-width=".30876">
   <path d="m395.22 162.36a3.2297 3.2297 0 0 1-3.2297 3.2297 3.2297 3.2297 0 0 1-3.2297-3.2297 3.2297 3.2297 0 0 1 3.2297-3.2297 3.2297 3.2297 0 0 1 3.2297 3.2297z"/>
   <path d="m404.73 162.27a3.2297 3.2297 0 0 1-3.2297 3.2297 3.2297 3.2297 0 0 1-3.2297-3.2297 3.2297 3.2297 0 0 1 3.2297-3.2297 3.2297 3.2297 0 0 1 3.2297 3.2297z"/>
   <path d="m414.2 162.27a3.2297 3.2297 0 0 1-3.2297 3.2297 3.2297 3.2297 0 0 1-3.2297-3.2297 3.2297 3.2297 0 0 1 3.2297-3.2297 3.2297 3.2297 0 0 1 3.2297 3.2297z"/>
   <path d="m423.66 162.27a3.2297 3.2297 0 0 1-3.2297 3.2297 3.2297 3.2297 0 0 1-3.2297-3.2297 3.2297 3.2297 0 0 1 3.2297-3.2297 3.2297 3.2297 0 0 1 3.2297 3.2297z"/>
  </g>
  <path d="m269.59 167.09h117.73v9.6283h-117.73z" stroke-width=".40362"/>
  <path d="m262.49 167.17h7.4272v9.5431h-7.4272z" stroke-width=".36172"/>
  <g stroke-width=".5146">
   <path d="m425.16 167.01h9.4649v9.7739h-9.4649z"/>
   <path d="m415.7 167.01h9.465v9.7739h-9.465z"/>
   <path d="m406.23 167.01h9.4649v9.7739h-9.4649z"/>
   <path d="m396.77 167.01h9.4649v9.7739h-9.4649z"/>
   <path d="m387.26 167.1h9.4649v9.7739h-9.4649z"/>
  </g>
 </g>
 <path d="m266.19 169.84h0.021c1.2512 0 2.2586 1.0073 2.2586 2.2586s-1.0073 2.2586-2.2586 2.2586h-0.021c-1.2513 0-2.2586-1.0073-2.2586-2.2586s1.0073-2.2586 2.2586-2.2586z" fill="#1a1a1a" stroke="#000" stroke-width=".039276"/>
 <path d="m274.84 169.89h60.976c0.62084 0 1.1206 0.49981 1.1206 1.1206v2.1703c0 0.62084-0.49981 1.1207-1.1206 1.1207h-60.976c-0.62085 0-1.1207-0.49981-1.1207-1.1207v-2.1703c0-0.62083 0.49982-1.1206 1.1207-1.1206z" fill="#1a1a1a" stroke="#000" stroke-width=".14486"/>
 <g fill="#fff" stroke="#000">
  <g stroke-width=".30876">
   <path d="m395.22 171.99a3.2297 3.2297 0 0 1-3.2297 3.2297 3.2297 3.2297 0 0 1-3.2297-3.2297 3.2297 3.2297 0 0 1 3.2297-3.2297 3.2297 3.2297 0 0 1 3.2297 3.2297z"/>
   <path d="m404.73 171.9a3.2297 3.2297 0 0 1-3.2297 3.2297 3.2297 3.2297 0 0 1-3.2297-3.2297 3.2297 3.2297 0 0 1 3.2297-3.2297 3.2297 3.2297 0 0 1 3.2297 3.2297z"/>
   <path d="m414.2 171.9a3.2297 3.2297 0 0 1-3.2297 3.2297 3.2297 3.2297 0 0 1-3.2297-3.2297 3.2297 3.2297 0 0 1 3.2297-3.2297 3.2297 3.2297 0 0 1 3.2297 3.2297z"/>
   <path d="m423.66 171.9a3.2297 3.2297 0 0 1-3.2297 3.2297 3.2297 3.2297 0 0 1-3.2297-3.2297 3.2297 3.2297 0 0 1 3.2297-3.2297 3.2297 3.2297 0 0 1 3.2297 3.2297z"/>
  </g>
  <path d="m269.59 176.86h117.73v9.6283h-117.73z" stroke-width=".40362"/>
  <path d="m262.49 176.95h7.4272v9.5431h-7.4272z" stroke-width=".36172"/>
  <g stroke-width=".5146">
   <path d="m425.16 176.78h9.4649v9.774h-9.4649z"/>
   <path d="m415.7 176.78h9.465v9.774h-9.465z"/>
   <path d="m406.23 176.78h9.4649v9.774h-9.4649z"/>
   <path d="m396.77 176.78h9.4649v9.774h-9.4649z"/>
   <path d="m387.26 176.88h9.4649v9.774h-9.4649z"/>
  </g>
 </g>
 <path d="m266.19 179.61h0.021c1.2512 0 2.2586 1.0073 2.2586 2.2586s-1.0073 2.2586-2.2586 2.2586h-0.021c-1.2513 0-2.2586-1.0073-2.2586-2.2586s1.0073-2.2586 2.2586-2.2586z" fill="#1a1a1a" stroke="#000" stroke-width=".039276"/>
 <path d="m274.85 179.68h93.712c0.61622 0 1.1123 0.49609 1.1123 1.1123v2.1541c0 0.6162-0.49606 1.1123-1.1123 1.1123h-93.712c-0.6162 0-1.1123-0.49608-1.1123-1.1123v-2.1541c0-0.6162 0.49608-1.1123 1.1123-1.1123z" fill="#1a1a1a" stroke="#000" stroke-width=".17779"/>
 <g fill="#fff" stroke="#000">
  <g stroke-width=".30876">
   <path d="m395.22 181.76a3.2297 3.2297 0 0 1-3.2297 3.2297 3.2297 3.2297 0 0 1-3.2297-3.2297 3.2297 3.2297 0 0 1 3.2297-3.2297 3.2297 3.2297 0 0 1 3.2297 3.2297z"/>
   <path d="m404.73 181.67a3.2297 3.2297 0 0 1-3.2297 3.2297 3.2297 3.2297 0 0 1-3.2297-3.2297 3.2297 3.2297 0 0 1 3.2297-3.2297 3.2297 3.2297 0 0 1 3.2297 3.2297z"/>
   <path d="m414.2 181.67a3.2297 3.2297 0 0 1-3.2297 3.2297 3.2297 3.2297 0 0 1-3.2297-3.2297 3.2297 3.2297 0 0 1 3.2297-3.2297 3.2297 3.2297 0 0 1 3.2297 3.2297z"/>
   <path d="m423.66 181.67a3.2297 3.2297 0 0 1-3.2297 3.2297 3.2297 3.2297 0 0 1-3.2297-3.2297 3.2297 3.2297 0 0 1 3.2297-3.2297 3.2297 3.2297 0 0 1 3.2297 3.2297z"/>
  </g>
  <path d="m269.59 186.64h117.73v9.6283h-117.73z" stroke-width=".40362"/>
  <path d="m262.49 186.72h7.4272v9.5431h-7.4272z" stroke-width=".36172"/>
  <g stroke-width=".5146">
   <path d="m425.16 186.56h9.4649v9.774h-9.4649z"/>
   <path d="m415.7 186.56h9.465v9.774h-9.465z"/>
   <path d="m406.23 186.56h9.4649v9.774h-9.4649z"/>
   <path d="m396.77 186.56h9.4649v9.774h-9.4649z"/>
   <path d="m387.26 186.65h9.4649v9.7739h-9.4649z"/>
  </g>
 </g>
 <path d="m266.19 189.39h0.021c1.2512 0 2.2586 1.0073 2.2586 2.2586 0 1.2512-1.0073 2.2586-2.2586 2.2586h-0.021c-1.2513 0-2.2586-1.0073-2.2586-2.2586 0-1.2513 1.0073-2.2586 2.2586-2.2586z" fill="#1a1a1a" stroke="#000" stroke-width=".039276"/>
 <path d="m274.84 189.45h85.064c0.61735 0 1.1144 0.49699 1.1144 1.1143v2.1581c0 0.61734-0.49699 1.1143-1.1144 1.1143h-85.064c-0.61734 0-1.1143-0.49699-1.1143-1.1143v-2.1581c0-0.61733 0.49698-1.1143 1.1143-1.1143z" fill="#1a1a1a" stroke="#000" stroke-width=".16975"/>
 <g fill="#fff" stroke="#000">
  <g stroke-width=".30876">
   <path d="m395.22 191.54a3.2297 3.2297 0 0 1-3.2297 3.2297 3.2297 3.2297 0 0 1-3.2297-3.2297 3.2297 3.2297 0 0 1 3.2297-3.2297 3.2297 3.2297 0 0 1 3.2297 3.2297z"/>
   <path d="m404.73 191.45a3.2297 3.2297 0 0 1-3.2297 3.2297 3.2297 3.2297 0 0 1-3.2297-3.2297 3.2297 3.2297 0 0 1 3.2297-3.2297 3.2297 3.2297 0 0 1 3.2297 3.2297z"/>
   <path d="m423.66 191.45a3.2297 3.2297 0 0 1-3.2297 3.2297 3.2297 3.2297 0 0 1-3.2297-3.2297 3.2297 3.2297 0 0 1 3.2297-3.2297 3.2297 3.2297 0 0 1 3.2297 3.2297z"/>
   <path d="m433.13 191.45a3.2297 3.2297 0 0 1-3.2297 3.2297 3.2297 3.2297 0 0 1-3.2297-3.2297 3.2297 3.2297 0 0 1 3.2297-3.2297 3.2297 3.2297 0 0 1 3.2297 3.2297z"/>
  </g>
  <path d="m269.59 196.41h117.73v9.6283h-117.73z" stroke-width=".40362"/>
  <path d="m262.49 196.5h7.4272v9.5431h-7.4272z" stroke-width=".36172"/>
  <g stroke-width=".5146">
   <path d="m425.16 196.33h9.4649v9.7739h-9.4649z"/>
   <path d="m415.7 196.33h9.465v9.7739h-9.465z"/>
   <path d="m406.23 196.33h9.4649v9.7739h-9.4649z"/>
   <path d="m396.77 196.33h9.4649v9.7739h-9.4649z"/>
   <path d="m387.26 196.42h9.4649v9.7739h-9.4649z"/>
  </g>
 </g>
 <path d="m266.19 199.16h0.021c1.2512 0 2.2586 1.0073 2.2586 2.2586 0 1.2513-1.0073 2.2586-2.2586 2.2586h-0.021c-1.2513 0-2.2586-1.0073-2.2586-2.2586 0-1.2512 1.0073-2.2586 2.2586-2.2586z" fill="#1a1a1a" stroke="#000" stroke-width=".039276"/>
 <path d="m274.84 199.21h54.8c0.62184 0 1.1225 0.50062 1.1225 1.1225v2.1738c0 0.62185-0.50063 1.1225-1.1225 1.1225h-54.8c-0.62184 0-1.1225-0.50062-1.1225-1.1225v-2.1738c0-0.62185 0.50063-1.1225 1.1225-1.1225z" fill="#1a1a1a" stroke="#000" stroke-width=".13772"/>
 <g fill="#fff" stroke="#000">
  <g stroke-width=".30876">
   <path d="m395.22 201.31a3.2297 3.2297 0 0 1-3.2297 3.2297 3.2297 3.2297 0 0 1-3.2297-3.2297 3.2297 3.2297 0 0 1 3.2297-3.2297 3.2297 3.2297 0 0 1 3.2297 3.2297z"/>
   <path d="m404.73 201.22a3.2297 3.2297 0 0 1-3.2297 3.2297 3.2297 3.2297 0 0 1-3.2297-3.2297 3.2297 3.2297 0 0 1 3.2297-3.2297 3.2297 3.2297 0 0 1 3.2297 3.2297z"/>
   <path d="m414.2 201.22a3.2297 3.2297 0 0 1-3.2297 3.2297 3.2297 3.2297 0 0 1-3.2297-3.2297 3.2297 3.2297 0 0 1 3.2297-3.2297 3.2297 3.2297 0 0 1 3.2297 3.2297z"/>
   <path d="m433.13 201.22a3.2297 3.2297 0 0 1-3.2297 3.2297 3.2297 3.2297 0 0 1-3.2297-3.2297 3.2297 3.2297 0 0 1 3.2297-3.2297 3.2297 3.2297 0 0 1 3.2297 3.2297z"/>
  </g>
  <path d="m269.59 206.18h117.73v9.6283h-117.73z" stroke-width=".40362"/>
  <path d="m262.49 206.27h7.4272v9.5431h-7.4272z" stroke-width=".36172"/>
  <g stroke-width=".5146">
   <path d="m425.16 206.11h9.4649v9.7739h-9.4649z"/>
   <path d="m415.7 206.11h9.465v9.7739h-9.465z"/>
   <path d="m406.23 206.11h9.4649v9.7739h-9.4649z"/>
   <path d="m396.77 206.11h9.4649v9.7739h-9.4649z"/>
   <path d="m387.26 206.2h9.4649v9.774h-9.4649z"/>
  </g>
 </g>
 <path d="m266.19 208.93h0.021c1.2512 0 2.2586 1.0073 2.2586 2.2586 0 1.2513-1.0073 2.2586-2.2586 2.2586h-0.021c-1.2513 0-2.2586-1.0073-2.2586-2.2586 0-1.2513 1.0073-2.2586 2.2586-2.2586z" fill="#1a1a1a" stroke="#000" stroke-width=".039276"/>
 <path d="m274.84 209h83.829c0.6175 0 1.1146 0.49713 1.1146 1.1146v2.1586c0 0.6175-0.49712 1.1146-1.1146 1.1146h-83.829c-0.6175 0-1.1146-0.49713-1.1146-1.1146v-2.1586c0-0.61751 0.49712-1.1146 1.1146-1.1146z" fill="#1a1a1a" stroke="#000" stroke-width=".16857"/>
 <g fill="#fff" stroke="#000">
  <g stroke-width=".30876">
   <path d="m395.22 211.09a3.2297 3.2297 0 0 1-3.2297 3.2297 3.2297 3.2297 0 0 1-3.2297-3.2297 3.2297 3.2297 0 0 1 3.2297-3.2297 3.2297 3.2297 0 0 1 3.2297 3.2297z"/>
   <path d="m404.73 210.99a3.2297 3.2297 0 0 1-3.2297 3.2297 3.2297 3.2297 0 0 1-3.2297-3.2297 3.2297 3.2297 0 0 1 3.2297-3.2297 3.2297 3.2297 0 0 1 3.2297 3.2297z"/>
   <path d="m423.66 210.99a3.2297 3.2297 0 0 1-3.2297 3.2297 3.2297 3.2297 0 0 1-3.2297-3.2297 3.2297 3.2297 0 0 1 3.2297-3.2297 3.2297 3.2297 0 0 1 3.2297 3.2297z"/>
   <path d="m433.13 210.99a3.2297 3.2297 0 0 1-3.2297 3.2297 3.2297 3.2297 0 0 1-3.2297-3.2297 3.2297 3.2297 0 0 1 3.2297-3.2297 3.2297 3.2297 0 0 1 3.2297 3.2297z"/>
  </g>
  <path d="m269.59 215.96h117.73v9.6283h-117.73z" stroke-width=".40362"/>
  <path d="m262.49 216.04h7.4272v9.5431h-7.4272z" stroke-width=".36172"/>
  <g stroke-width=".5146">
   <path d="m425.16 215.88h9.4649v9.774h-9.4649z"/>
   <path d="m415.7 215.88h9.465v9.774h-9.465z"/>
   <path d="m406.23 215.91h9.4649v9.774h-9.4649z"/>
   <path d="m396.77 215.88h9.4649v9.774h-9.4649z"/>
   <path d="m387.26 215.97h9.4649v9.7739h-9.4649z"/>
  </g>
 </g>
 <path d="m266.19 218.71h0.021c1.2512 0 2.2586 1.0073 2.2586 2.2586s-1.0073 2.2586-2.2586 2.2586h-0.021c-1.2513 0-2.2586-1.0073-2.2586-2.2586s1.0073-2.2586 2.2586-2.2586z" fill="#1a1a1a" stroke="#000" stroke-width=".039276"/>
 <path d="m274.84 218.76h63.447c0.62045 0 1.1199 0.49951 1.1199 1.12v2.1689c0 0.62045-0.49949 1.1199-1.1199 1.1199h-63.447c-0.62045 0-1.1199-0.49949-1.1199-1.1199v-2.1689c0-0.62045 0.49949-1.12 1.1199-1.12z" fill="#1a1a1a" stroke="#000" stroke-width=".14762"/>
 <g fill="#fff" stroke="#000">
  <g stroke-width=".30876">
   <path d="m395.22 220.86a3.2297 3.2297 0 0 1-3.2297 3.2297 3.2297 3.2297 0 0 1-3.2297-3.2297 3.2297 3.2297 0 0 1 3.2297-3.2297 3.2297 3.2297 0 0 1 3.2297 3.2297z"/>
   <path d="m404.73 220.77a3.2297 3.2297 0 0 1-3.2297 3.2297 3.2297 3.2297 0 0 1-3.2297-3.2297 3.2297 3.2297 0 0 1 3.2297-3.2297 3.2297 3.2297 0 0 1 3.2297 3.2297z"/>
   <path d="m423.66 220.77a3.2297 3.2297 0 0 1-3.2297 3.2297 3.2297 3.2297 0 0 1-3.2297-3.2297 3.2297 3.2297 0 0 1 3.2297-3.2297 3.2297 3.2297 0 0 1 3.2297 3.2297z"/>
   <path d="m433.13 220.77a3.2297 3.2297 0 0 1-3.2297 3.2297 3.2297 3.2297 0 0 1-3.2297-3.2297 3.2297 3.2297 0 0 1 3.2297-3.2297 3.2297 3.2297 0 0 1 3.2297 3.2297z"/>
  </g>
  <path d="m269.59 225.59h117.73v9.6283h-117.73z" stroke-width=".40362"/>
  <path d="m262.49 225.67h7.4272v9.5431h-7.4272z" stroke-width=".36172"/>
  <g stroke-width=".5146">
   <path d="m425.16 225.78h9.4649v9.774h-9.4649z"/>
   <path d="m415.7 225.51h9.465v9.7739h-9.465z"/>
   <path d="m406.23 225.51h9.4649v9.7739h-9.4649z"/>
   <path d="m396.77 225.51h9.4649v9.7739h-9.4649z"/>
   <path d="m387.26 225.6h9.4649v9.7739h-9.4649z"/>
  </g>
 </g>
 <path d="m266.19 228.34h0.021c1.2512 0 2.2586 1.0073 2.2586 2.2586 0 1.2513-1.0073 2.2586-2.2586 2.2586h-0.021c-1.2513 0-2.2586-1.0073-2.2586-2.2586 0-1.2513 1.0073-2.2586 2.2586-2.2586z" fill="#1a1a1a" stroke="#000" stroke-width=".039276"/>
 <path d="m274.84 228.4h86.917c0.6171 0 1.1139 0.49679 1.1139 1.1139v2.1572c0 0.61709-0.49678 1.1139-1.1139 1.1139h-86.917c-0.61709 0-1.1139-0.49679-1.1139-1.1139v-2.1572c0-0.6171 0.49679-1.1139 1.1139-1.1139z" fill="#1a1a1a" stroke="#000" stroke-width=".17151"/>
 <g fill="#fff" stroke="#000">
  <g stroke-width=".30876">
   <path d="m395.22 230.49a3.2297 3.2297 0 0 1-3.2297 3.2297 3.2297 3.2297 0 0 1-3.2297-3.2297 3.2297 3.2297 0 0 1 3.2297-3.2297 3.2297 3.2297 0 0 1 3.2297 3.2297z"/>
   <path d="m404.73 230.4a3.2297 3.2297 0 0 1-3.2297 3.2297 3.2297 3.2297 0 0 1-3.2297-3.2297 3.2297 3.2297 0 0 1 3.2297-3.2297 3.2297 3.2297 0 0 1 3.2297 3.2297z"/>
   <path d="m414.2 230.4a3.2297 3.2297 0 0 1-3.2297 3.2297 3.2297 3.2297 0 0 1-3.2297-3.2297 3.2297 3.2297 0 0 1 3.2297-3.2297 3.2297 3.2297 0 0 1 3.2297 3.2297z"/>
   <path d="m423.66 230.4a3.2297 3.2297 0 0 1-3.2297 3.2297 3.2297 3.2297 0 0 1-3.2297-3.2297 3.2297 3.2297 0 0 1 3.2297-3.2297 3.2297 3.2297 0 0 1 3.2297 3.2297z"/>
  </g>
  <path d="m269.59 235.36h117.73v9.6283h-117.73z" stroke-width=".40362"/>
  <path d="m262.49 235.45h7.4272v9.5431h-7.4272z" stroke-width=".36172"/>
  <g stroke-width=".5146">
   <path d="m425.16 235.28h9.4649v9.7739h-9.4649z"/>
   <path d="m415.7 235.28h9.465v9.7739h-9.465z"/>
   <path d="m406.23 235.28h9.4649v9.7739h-9.4649z"/>
   <path d="m396.77 235.28h9.4649v9.7739h-9.4649z"/>
   <path d="m387.26 235.37h9.4649v9.7739h-9.4649z"/>
  </g>
 </g>
 <path d="m266.19 238.11h0.021c1.2512 0 2.2586 1.0073 2.2586 2.2586 0 1.2512-1.0073 2.2586-2.2586 2.2586h-0.021c-1.2513 0-2.2586-1.0073-2.2586-2.2586 0-1.2513 1.0073-2.2586 2.2586-2.2586z" fill="#1a1a1a" stroke="#000" stroke-width=".039276"/>
 <path d="m274.84 238.17h66.535c0.61998 0 1.1191 0.49912 1.1191 1.1191v2.1673c0 0.61998-0.49911 1.1191-1.1191 1.1191h-66.535c-0.61998 0-1.1191-0.49911-1.1191-1.1191v-2.1673c0-0.61997 0.49912-1.1191 1.1191-1.1191z" fill="#1a1a1a" stroke="#000" stroke-width=".15099"/>
 <g fill="#fff" stroke="#000">
  <g stroke-width=".30876">
   <path d="m395.22 240.26a3.2297 3.2297 0 0 1-3.2297 3.2297 3.2297 3.2297 0 0 1-3.2297-3.2297 3.2297 3.2297 0 0 1 3.2297-3.2297 3.2297 3.2297 0 0 1 3.2297 3.2297z"/>
   <path d="m404.73 240.17a3.2297 3.2297 0 0 1-3.2297 3.2297 3.2297 3.2297 0 0 1-3.2297-3.2297 3.2297 3.2297 0 0 1 3.2297-3.2297 3.2297 3.2297 0 0 1 3.2297 3.2297z"/>
   <path d="m414.2 240.17a3.2297 3.2297 0 0 1-3.2297 3.2297 3.2297 3.2297 0 0 1-3.2297-3.2297 3.2297 3.2297 0 0 1 3.2297-3.2297 3.2297 3.2297 0 0 1 3.2297 3.2297z"/>
   <path d="m433.13 240.17a3.2297 3.2297 0 0 1-3.2297 3.2297 3.2297 3.2297 0 0 1-3.2297-3.2297 3.2297 3.2297 0 0 1 3.2297-3.2297 3.2297 3.2297 0 0 1 3.2297 3.2297z"/>
  </g>
  <path d="m269.59 245.14h117.73v9.6283h-117.73z" stroke-width=".40362"/>
  <path d="m262.49 245.22h7.4272v9.5431h-7.4272z" stroke-width=".36172"/>
  <g stroke-width=".5146">
   <path d="m425.16 245.06h9.4649v9.7739h-9.4649z"/>
   <path d="m415.7 245.06h9.465v9.7739h-9.465z"/>
   <path d="m406.23 245.06h9.4649v9.7739h-9.4649z"/>
   <path d="m396.77 245.06h9.4649v9.7739h-9.4649z"/>
   <path d="m387.26 245.15h9.4649v9.774h-9.4649z"/>
  </g>
 </g>
 <path d="m266.19 247.88h0.021c1.2512 0 2.2586 1.0073 2.2586 2.2586 0 1.2513-1.0073 2.2586-2.2586 2.2586h-0.021c-1.2513 0-2.2586-1.0073-2.2586-2.2586 0-1.2512 1.0073-2.2586 2.2586-2.2586z" fill="#1a1a1a" stroke="#000" stroke-width=".039276"/>
 <path d="m274.84 247.93h56.036c0.62163 0 1.1221 0.50046 1.1221 1.1221v2.1731c0 0.62165-0.50045 1.1221-1.1221 1.1221h-56.036c-0.62162 0-1.1221-0.50044-1.1221-1.1221v-2.1731c0-0.62163 0.50045-1.1221 1.1221-1.1221z" fill="#1a1a1a" stroke="#000" stroke-width=".13918"/>
 <g fill="#fff" stroke="#000" stroke-width=".30876">
  <path d="m395.22 250.04a3.2297 3.2297 0 0 1-3.2297 3.2297 3.2297 3.2297 0 0 1-3.2297-3.2297 3.2297 3.2297 0 0 1 3.2297-3.2297 3.2297 3.2297 0 0 1 3.2297 3.2297z"/>
  <path d="m404.73 249.94a3.2297 3.2297 0 0 1-3.2297 3.2297 3.2297 3.2297 0 0 1-3.2297-3.2297 3.2297 3.2297 0 0 1 3.2297-3.2297 3.2297 3.2297 0 0 1 3.2297 3.2297z"/>
  <path d="m414.2 249.94a3.2297 3.2297 0 0 1-3.2297 3.2297 3.2297 3.2297 0 0 1-3.2297-3.2297 3.2297 3.2297 0 0 1 3.2297-3.2297 3.2297 3.2297 0 0 1 3.2297 3.2297z"/>
  <path d="m423.66 249.94a3.2297 3.2297 0 0 1-3.2297 3.2297 3.2297 3.2297 0 0 1-3.2297-3.2297 3.2297 3.2297 0 0 1 3.2297-3.2297 3.2297 3.2297 0 0 1 3.2297 3.2297z"/>
 </g>
 <g transform="matrix(1.0292 0 0 1.0292 50.66 44.233)" stroke="#257cfd">
  <path d="m371.61 20.428a3.1381 3.1381 0 0 1-3.1381 3.1381 3.1381 3.1381 0 0 1-3.1381-3.1381 3.1381 3.1381 0 0 1 3.1381-3.1381 3.1381 3.1381 0 0 1 3.1381 3.1381z" fill="#fff" stroke-width=".3"/>
  <path d="m370.4 20.428a1.9204 1.9204 0 0 1-1.9204 1.9204 1.9204 1.9204 0 0 1-1.9204-1.9204 1.9204 1.9204 0 0 1 1.9204-1.9204 1.9204 1.9204 0 0 1 1.9204 1.9204z" fill="#257cfd" stroke-width=".18359"/>
 </g>
 <g transform="matrix(1.0292 0 0 1.0292 41.195 54.007)" stroke="#257cfd">
  <path d="m371.61 20.428a3.1381 3.1381 0 0 1-3.1381 3.1381 3.1381 3.1381 0 0 1-3.1381-3.1381 3.1381 3.1381 0 0 1 3.1381-3.1381 3.1381 3.1381 0 0 1 3.1381 3.1381z" fill="#fff" stroke-width=".3"/>
  <path d="m370.4 20.428a1.9204 1.9204 0 0 1-1.9204 1.9204 1.9204 1.9204 0 0 1-1.9204-1.9204 1.9204 1.9204 0 0 1 1.9204-1.9204 1.9204 1.9204 0 0 1 1.9204 1.9204z" fill="#257cfd" stroke-width=".18359"/>
 </g>
 <g transform="matrix(1.0292 0 0 1.0292 31.73 63.781)" stroke="#257cfd">
  <path d="m371.61 20.428a3.1381 3.1381 0 0 1-3.1381 3.1381 3.1381 3.1381 0 0 1-3.1381-3.1381 3.1381 3.1381 0 0 1 3.1381-3.1381 3.1381 3.1381 0 0 1 3.1381 3.1381z" fill="#fff" stroke-width=".3"/>
  <path d="m370.4 20.428a1.9204 1.9204 0 0 1-1.9204 1.9204 1.9204 1.9204 0 0 1-1.9204-1.9204 1.9204 1.9204 0 0 1 1.9204-1.9204 1.9204 1.9204 0 0 1 1.9204 1.9204z" fill="#257cfd" stroke-width=".18359"/>
 </g>
 <g transform="matrix(1.0292 0 0 1.0292 31.73 73.409)" stroke="#257cfd">
  <path d="m371.61 20.428a3.1381 3.1381 0 0 1-3.1381 3.1381 3.1381 3.1381 0 0 1-3.1381-3.1381 3.1381 3.1381 0 0 1 3.1381-3.1381 3.1381 3.1381 0 0 1 3.1381 3.1381z" fill="#fff" stroke-width=".3"/>
  <path d="m370.4 20.428a1.9204 1.9204 0 0 1-1.9204 1.9204 1.9204 1.9204 0 0 1-1.9204-1.9204 1.9204 1.9204 0 0 1 1.9204-1.9204 1.9204 1.9204 0 0 1 1.9204 1.9204z" fill="#257cfd" stroke-width=".18359"/>
 </g>
 <g transform="matrix(1.0292 0 0 1.0292 50.66 83.037)" stroke="#257cfd">
  <path d="m371.61 20.428a3.1381 3.1381 0 0 1-3.1381 3.1381 3.1381 3.1381 0 0 1-3.1381-3.1381 3.1381 3.1381 0 0 1 3.1381-3.1381 3.1381 3.1381 0 0 1 3.1381 3.1381z" fill="#fff" stroke-width=".3"/>
  <path d="m370.4 20.428a1.9204 1.9204 0 0 1-1.9204 1.9204 1.9204 1.9204 0 0 1-1.9204-1.9204 1.9204 1.9204 0 0 1 1.9204-1.9204 1.9204 1.9204 0 0 1 1.9204 1.9204z" fill="#257cfd" stroke-width=".18359"/>
 </g>
 <g transform="matrix(1.0292 0 0 1.0292 41.195 92.666)" stroke="#257cfd">
  <path d="m371.61 20.428a3.1381 3.1381 0 0 1-3.1381 3.1381 3.1381 3.1381 0 0 1-3.1381-3.1381 3.1381 3.1381 0 0 1 3.1381-3.1381 3.1381 3.1381 0 0 1 3.1381 3.1381z" fill="#fff" stroke-width=".3"/>
  <path d="m370.4 20.428a1.9204 1.9204 0 0 1-1.9204 1.9204 1.9204 1.9204 0 0 1-1.9204-1.9204 1.9204 1.9204 0 0 1 1.9204-1.9204 1.9204 1.9204 0 0 1 1.9204 1.9204z" fill="#257cfd" stroke-width=".18359"/>
 </g>
 <g transform="matrix(1.0292 0 0 1.0292 41.195 102.44)" stroke="#257cfd">
  <path d="m371.61 20.428a3.1381 3.1381 0 0 1-3.1381 3.1381 3.1381 3.1381 0 0 1-3.1381-3.1381 3.1381 3.1381 0 0 1 3.1381-3.1381 3.1381 3.1381 0 0 1 3.1381 3.1381z" fill="#fff" stroke-width=".3"/>
  <path d="m370.4 20.428a1.9204 1.9204 0 0 1-1.9204 1.9204 1.9204 1.9204 0 0 1-1.9204-1.9204 1.9204 1.9204 0 0 1 1.9204-1.9204 1.9204 1.9204 0 0 1 1.9204 1.9204z" fill="#257cfd" stroke-width=".18359"/>
 </g>
 <g transform="matrix(1.0292 0 0 1.0292 50.66 112.21)" stroke="#257cfd">
  <path d="m371.61 20.428a3.1381 3.1381 0 0 1-3.1381 3.1381 3.1381 3.1381 0 0 1-3.1381-3.1381 3.1381 3.1381 0 0 1 3.1381-3.1381 3.1381 3.1381 0 0 1 3.1381 3.1381z" fill="#fff" stroke-width=".3"/>
  <path d="m370.4 20.428a1.9204 1.9204 0 0 1-1.9204 1.9204 1.9204 1.9204 0 0 1-1.9204-1.9204 1.9204 1.9204 0 0 1 1.9204-1.9204 1.9204 1.9204 0 0 1 1.9204 1.9204z" fill="#257cfd" stroke-width=".18359"/>
 </g>
 <g transform="matrix(1.0292 0 0 1.0292 31.73 121.99)" stroke="#257cfd">
  <path d="m371.61 20.428a3.1381 3.1381 0 0 1-3.1381 3.1381 3.1381 3.1381 0 0 1-3.1381-3.1381 3.1381 3.1381 0 0 1 3.1381-3.1381 3.1381 3.1381 0 0 1 3.1381 3.1381z" fill="#fff" stroke-width=".3"/>
  <path d="m370.4 20.428a1.9204 1.9204 0 0 1-1.9204 1.9204 1.9204 1.9204 0 0 1-1.9204-1.9204 1.9204 1.9204 0 0 1 1.9204-1.9204 1.9204 1.9204 0 0 1 1.9204 1.9204z" fill="#257cfd" stroke-width=".18359"/>
 </g>
 <g transform="matrix(1.0292 0 0 1.0292 41.195 131.62)" stroke="#257cfd">
  <path d="m371.61 20.428a3.1381 3.1381 0 0 1-3.1381 3.1381 3.1381 3.1381 0 0 1-3.1381-3.1381 3.1381 3.1381 0 0 1 3.1381-3.1381 3.1381 3.1381 0 0 1 3.1381 3.1381z" fill="#fff" stroke-width=".3"/>
  <path d="m370.4 20.428a1.9204 1.9204 0 0 1-1.9204 1.9204 1.9204 1.9204 0 0 1-1.9204-1.9204 1.9204 1.9204 0 0 1 1.9204-1.9204 1.9204 1.9204 0 0 1 1.9204 1.9204z" fill="#257cfd" stroke-width=".18359"/>
 </g>
 <g transform="matrix(1.0292 0 0 1.0292 50.66 141.24)" stroke="#257cfd">
  <path d="m371.61 20.428a3.1381 3.1381 0 0 1-3.1381 3.1381 3.1381 3.1381 0 0 1-3.1381-3.1381 3.1381 3.1381 0 0 1 3.1381-3.1381 3.1381 3.1381 0 0 1 3.1381 3.1381z" fill="#fff" stroke-width=".3"/>
  <path d="m370.4 20.428a1.9204 1.9204 0 0 1-1.9204 1.9204 1.9204 1.9204 0 0 1-1.9204-1.9204 1.9204 1.9204 0 0 1 1.9204-1.9204 1.9204 1.9204 0 0 1 1.9204 1.9204z" fill="#257cfd" stroke-width=".18359"/>
 </g>
 <g transform="matrix(1.0292 0 0 1.0292 50.66 150.87)" stroke="#257cfd">
  <path d="m371.61 20.428a3.1381 3.1381 0 0 1-3.1381 3.1381 3.1381 3.1381 0 0 1-3.1381-3.1381 3.1381 3.1381 0 0 1 3.1381-3.1381 3.1381 3.1381 0 0 1 3.1381 3.1381z" fill="#fff" stroke-width=".3"/>
  <path d="m370.4 20.428a1.9204 1.9204 0 0 1-1.9204 1.9204 1.9204 1.9204 0 0 1-1.9204-1.9204 1.9204 1.9204 0 0 1 1.9204-1.9204 1.9204 1.9204 0 0 1 1.9204 1.9204z" fill="#257cfd" stroke-width=".18359"/>
 </g>
 <g transform="matrix(1.0292 0 0 1.0292 50.66 160.65)" stroke="#257cfd">
  <path d="m371.61 20.428a3.1381 3.1381 0 0 1-3.1381 3.1381 3.1381 3.1381 0 0 1-3.1381-3.1381 3.1381 3.1381 0 0 1 3.1381-3.1381 3.1381 3.1381 0 0 1 3.1381 3.1381z" fill="#fff" stroke-width=".3"/>
  <path d="m370.4 20.428a1.9204 1.9204 0 0 1-1.9204 1.9204 1.9204 1.9204 0 0 1-1.9204-1.9204 1.9204 1.9204 0 0 1 1.9204-1.9204 1.9204 1.9204 0 0 1 1.9204 1.9204z" fill="#257cfd" stroke-width=".18359"/>
 </g>
 <g transform="matrix(1.0292 0 0 1.0292 31.73 170.42)" stroke="#257cfd">
  <path d="m371.61 20.428a3.1381 3.1381 0 0 1-3.1381 3.1381 3.1381 3.1381 0 0 1-3.1381-3.1381 3.1381 3.1381 0 0 1 3.1381-3.1381 3.1381 3.1381 0 0 1 3.1381 3.1381z" fill="#fff" stroke-width=".3"/>
  <path d="m370.4 20.428a1.9204 1.9204 0 0 1-1.9204 1.9204 1.9204 1.9204 0 0 1-1.9204-1.9204 1.9204 1.9204 0 0 1 1.9204-1.9204 1.9204 1.9204 0 0 1 1.9204 1.9204z" fill="#257cfd" stroke-width=".18359"/>
 </g>
 <g transform="matrix(1.0292 0 0 1.0292 41.195 180.19)" stroke="#257cfd">
  <path d="m371.61 20.428a3.1381 3.1381 0 0 1-3.1381 3.1381 3.1381 3.1381 0 0 1-3.1381-3.1381 3.1381 3.1381 0 0 1 3.1381-3.1381 3.1381 3.1381 0 0 1 3.1381 3.1381z" fill="#fff" stroke-width=".3"/>
  <path d="m370.4 20.428a1.9204 1.9204 0 0 1-1.9204 1.9204 1.9204 1.9204 0 0 1-1.9204-1.9204 1.9204 1.9204 0 0 1 1.9204-1.9204 1.9204 1.9204 0 0 1 1.9204 1.9204z" fill="#257cfd" stroke-width=".18359"/>
 </g>
 <g transform="matrix(1.0292 0 0 1.0292 31.73 189.97)" stroke="#257cfd">
  <path d="m371.61 20.428a3.1381 3.1381 0 0 1-3.1381 3.1381 3.1381 3.1381 0 0 1-3.1381-3.1381 3.1381 3.1381 0 0 1 3.1381-3.1381 3.1381 3.1381 0 0 1 3.1381 3.1381z" fill="#fff" stroke-width=".3"/>
  <path d="m370.4 20.428a1.9204 1.9204 0 0 1-1.9204 1.9204 1.9204 1.9204 0 0 1-1.9204-1.9204 1.9204 1.9204 0 0 1 1.9204-1.9204 1.9204 1.9204 0 0 1 1.9204 1.9204z" fill="#257cfd" stroke-width=".18359"/>
 </g>
 <g transform="matrix(1.0292 0 0 1.0292 31.73 199.77)" stroke="#257cfd">
  <path d="m371.61 20.428a3.1381 3.1381 0 0 1-3.1381 3.1381 3.1381 3.1381 0 0 1-3.1381-3.1381 3.1381 3.1381 0 0 1 3.1381-3.1381 3.1381 3.1381 0 0 1 3.1381 3.1381z" fill="#fff" stroke-width=".3"/>
  <path d="m370.4 20.428a1.9204 1.9204 0 0 1-1.9204 1.9204 1.9204 1.9204 0 0 1-1.9204-1.9204 1.9204 1.9204 0 0 1 1.9204-1.9204 1.9204 1.9204 0 0 1 1.9204 1.9204z" fill="#257cfd" stroke-width=".18359"/>
 </g>
 <g transform="matrix(1.0292 0 0 1.0292 50.66 209.64)" stroke="#257cfd">
  <path d="m371.61 20.428a3.1381 3.1381 0 0 1-3.1381 3.1381 3.1381 3.1381 0 0 1-3.1381-3.1381 3.1381 3.1381 0 0 1 3.1381-3.1381 3.1381 3.1381 0 0 1 3.1381 3.1381z" fill="#fff" stroke-width=".3"/>
  <path d="m370.4 20.428a1.9204 1.9204 0 0 1-1.9204 1.9204 1.9204 1.9204 0 0 1-1.9204-1.9204 1.9204 1.9204 0 0 1 1.9204-1.9204 1.9204 1.9204 0 0 1 1.9204 1.9204z" fill="#257cfd" stroke-width=".18359"/>
 </g>
 <g transform="matrix(1.0292 0 0 1.0292 41.195 219.14)" stroke="#257cfd">
  <path d="m371.61 20.428a3.1381 3.1381 0 0 1-3.1381 3.1381 3.1381 3.1381 0 0 1-3.1381-3.1381 3.1381 3.1381 0 0 1 3.1381-3.1381 3.1381 3.1381 0 0 1 3.1381 3.1381z" fill="#fff" stroke-width=".3"/>
  <path d="m370.4 20.428a1.9204 1.9204 0 0 1-1.9204 1.9204 1.9204 1.9204 0 0 1-1.9204-1.9204 1.9204 1.9204 0 0 1 1.9204-1.9204 1.9204 1.9204 0 0 1 1.9204 1.9204z" fill="#257cfd" stroke-width=".18359"/>
 </g>
 <g transform="matrix(1.0292 0 0 1.0292 50.66 228.92)" stroke="#257cfd">
  <path d="m371.61 20.428a3.1381 3.1381 0 0 1-3.1381 3.1381 3.1381 3.1381 0 0 1-3.1381-3.1381 3.1381 3.1381 0 0 1 3.1381-3.1381 3.1381 3.1381 0 0 1 3.1381 3.1381z" fill="#fff" stroke-width=".3"/>
  <path d="m370.4 20.428a1.9204 1.9204 0 0 1-1.9204 1.9204 1.9204 1.9204 0 0 1-1.9204-1.9204 1.9204 1.9204 0 0 1 1.9204-1.9204 1.9204 1.9204 0 0 1 1.9204 1.9204z" fill="#257cfd" stroke-width=".18359"/>
 </g>
</svg>
