<?xml version="1.0" encoding="UTF-8"?>
<svg width="526" height="307" fill="none" version="1.1" viewBox="0 0 526 307" xmlns="http://www.w3.org/2000/svg">
 <path d="m482.83 2.4386h-439.65c-3.9901 0-7.2246 3.2364-7.2246 7.2286v272.95c0 3.992 3.2345 7.229 7.2246 7.229h439.65c3.99 0 7.224-3.237 7.224-7.229v-272.95c0-3.9923-3.234-7.2286-7.224-7.2286z" fill="#11111a"/>
 <path d="m482.83 2.4386c1.924 0.02292 3.761 0.80379 5.114 2.1733 1.352 1.3695 2.11 3.2172 2.11 5.1425v272.86c0 1.917-0.761 3.756-2.116 5.112-1.355 1.355-3.192 2.117-5.108 2.117h-439.65c-1.916 0-3.7536-0.762-5.1085-2.117-1.3549-1.356-2.116-3.195-2.116-5.112v-272.86c-1e-4 -1.9253 0.7582-3.773 2.1106-5.1425 1.3525-1.3695 3.1899-2.1504 5.1139-2.1733zm0-2.6128h-439.65c-2.6166 0.022966-5.1182 1.0791-6.9603 2.9386-1.8421 1.8595-2.8756 4.3717-2.8755 6.9899v272.86c0 2.61 1.0363 5.113 2.8809 6.959 1.8445 1.846 4.3463 2.883 6.9549 2.883h439.65c2.608 0 5.11-1.037 6.955-2.883 1.844-1.846 2.881-4.349 2.881-6.959v-272.86c0-2.6182-1.034-5.1304-2.876-6.9899-1.842-1.8595-4.344-2.9156-6.96-2.9386z" fill="#4b4c52"/>
 <path d="m483 8.9999h-440v270h440z" fill="#fff"/>
 <path d="m526 287.14h-526v12.794h526z" fill="#414159"/>
 <path d="m0 299.95 0.6093 1.045c1.3054 2.105 3.0963 3.868 5.2226 5.138 0.87398 0.587 1.9071 0.891 2.9595 0.871h508.42c1.052 0.02 2.085-0.284 2.959-0.871 2.119-1.25 3.886-3.018 5.136-5.138l0.696-1.045z" fill="#11111a"/>
 <path d="m184.5 56.511h25.947c4.3501 0 7.8522 3.5355 7.8522 7.9272s-3.5021 7.9272-7.8522 7.9272h-25.947c-4.3501 0-7.8522-3.5355-7.8522-7.9272s3.5021-7.9272 7.8522-7.9272z" fill="#1a1a1a" stroke-width="3.678"/>
 <path d="m181.6 104.1h43.248c2.7436 0 4.9523 3.5355 4.9523 7.9272s-2.2087 7.9272-4.9523 7.9272h-43.248c-2.7436 0-4.9523-3.5355-4.9523-7.9272s2.2087-7.9272 4.9523-7.9272z" fill="#1a1a1a" stroke-width="4.1549"/>
 <g fill="#fff">
  <path d="m180.22 126.52h172.82c1.8246 0 3.2936 1.4689 3.2936 3.2936v8.7244c0 1.8246-1.4689 3.2936-3.2936 3.2936h-172.82c-1.8246 0-3.2936-1.4689-3.2936-3.2936v-8.7244c0-1.8246 1.4689-3.2936 3.2936-3.2936z" stroke="#000" stroke-width="1.0649"/>
  <path d="m356.89 78.935h0.29091c0.31069 0 0.56082 0.05399 0.56082 0.12105v3.3645c0 0.06706-0.25013 0.12105-0.56082 0.12105h-0.29091c-0.3107 0-0.56083-0.05399-0.56083-0.12105v-3.3645c0-0.06706 0.25013-0.12105 0.56083-0.12105z" stroke="#fff" stroke-width=".5221"/>
  <path d="m180.22 78.539h172.82c1.8246 0 3.2936 1.4689 3.2936 3.2936v8.7244c0 1.8246-1.4689 3.2936-3.2936 3.2936h-172.82c-1.8246 0-3.2936-1.4689-3.2936-3.2936v-8.7244c0-1.8246 1.4689-3.2936 3.2936-3.2936z" stroke="#000" stroke-width="1.0649"/>
 </g>
 <path d="m183.01 147.84h55.568c3.5252 0 6.3632 3.5355 6.3632 7.9272s-2.838 7.9272-6.3632 7.9272h-55.568c-3.5252 0-6.3632-3.5355-6.3632-7.9272s2.838-7.9272 6.3632-7.9272z" fill="#1a1a1a" stroke-width="4.7097"/>
 <path d="m180.92 170.61h5.7173c1.0318 0 1.8624 0.83062 1.8624 1.8624v4.9333c0 1.0318-0.83062 1.8624-1.8624 1.8624h-5.7173c-1.0318 0-1.8624-0.83061-1.8624-1.8624v-4.9333c0-1.0318 0.83061-1.8624 1.8624-1.8624z" fill="#fff" stroke="#000" stroke-width=".1837"/>
 <path d="m193.05 171.52h1.2649c1.5479 0 2.794 1.3787 2.794 3.0912v0.66704c0 1.7125-1.2461 3.0912-2.794 3.0912h-1.2649c-1.5479 0-2.794-1.3787-2.794-3.0912v-0.66704c0-1.7125 1.2461-3.0912 2.794-3.0912z" fill="#1a1a1a" stroke-width=".9806"/>
 <path d="m201.1 170.61h5.7173c1.0318 0 1.8624 0.83062 1.8624 1.8624v4.9333c0 1.0318-0.83061 1.8624-1.8624 1.8624h-5.7173c-1.0318 0-1.8624-0.83061-1.8624-1.8624v-4.9333c0-1.0318 0.83061-1.8624 1.8624-1.8624z" fill="#fff" stroke="#000" stroke-width=".1837"/>
 <path d="m213.23 171.52h1.2649c1.5479 0 2.794 1.3787 2.794 3.0912v0.66704c0 1.7125-1.2461 3.0912-2.794 3.0912h-1.2649c-1.5479 0-2.794-1.3787-2.794-3.0912v-0.66704c0-1.7125 1.2461-3.0912 2.794-3.0912z" fill="#1a1a1a" stroke-width=".9806"/>
 <path d="m222.21 170.61h5.7173c1.0318 0 1.8624 0.83062 1.8624 1.8624v4.9333c0 1.0318-0.83062 1.8624-1.8624 1.8624h-5.7173c-1.0318 0-1.8624-0.83061-1.8624-1.8624v-4.9333c0-1.0318 0.83061-1.8624 1.8624-1.8624z" fill="#257cfd" stroke="#000" stroke-width=".1837"/>
 <path d="m234.34 171.52h1.2649c1.5479 0 2.794 1.3787 2.794 3.0912v0.66704c0 1.7125-1.2461 3.0912-2.794 3.0912h-1.2649c-1.5479 0-2.794-1.3787-2.794-3.0912v-0.66704c0-1.7125 1.2461-3.0912 2.794-3.0912z" fill="#1a1a1a" stroke-width=".9806"/>
 <path d="m243.33 170.61h5.7173c1.0318 0 1.8624 0.83062 1.8624 1.8624v4.9333c0 1.0318-0.83062 1.8624-1.8624 1.8624h-5.7173c-1.0318 0-1.8624-0.83061-1.8624-1.8624v-4.9333c0-1.0318 0.83061-1.8624 1.8624-1.8624z" fill="#257cfd" stroke="#000" stroke-width=".1837"/>
 <path d="m255.46 171.52h1.2649c1.5479 0 2.794 1.3787 2.794 3.0912v0.66704c0 1.7125-1.2461 3.0912-2.794 3.0912h-1.2649c-1.5479 0-2.794-1.3787-2.794-3.0912v-0.66704c0-1.7125 1.2461-3.0912 2.794-3.0912z" fill="#1a1a1a" stroke-width=".9806"/>
 <path d="m263.38 170.61h5.7173c1.0318 0 1.8624 0.83062 1.8624 1.8624v4.9333c0 1.0318-0.83061 1.8624-1.8624 1.8624h-5.7173c-1.0318 0-1.8624-0.83061-1.8624-1.8624v-4.9333c0-1.0318 0.83062-1.8624 1.8624-1.8624z" fill="#257cfd" stroke="#000" stroke-width=".1837"/>
 <path d="m275.51 171.52h1.2649c1.5479 0 2.794 1.3787 2.794 3.0912v0.66704c0 1.7125-1.2461 3.0912-2.794 3.0912h-1.2649c-1.5479 0-2.794-1.3787-2.794-3.0912v-0.66704c0-1.7125 1.2461-3.0912 2.794-3.0912z" fill="#1a1a1a" stroke-width=".9806"/>
 <g transform="matrix(.0077642 0 0 .0077642 221.19 171.06)" fill="#fff">
  <path d="m990 182.1c0-44.2-33.5-76.5-77.7-76.5-23.9 0-45.4 14.3-45.4 14.3-205.5 110-533 481.6-533 481.6-23.9-20.2-169.7-154.1-169.7-154.1h-1.2l-1.2-1.2c-19.1-14.3-38.2-25.1-62.1-25.1-50.2 0-89.6 40.6-89.6 89.6 0 27.5 19.1 55 32.3 68.1 92 88.4 192.4 206.8 225.9 257 21.5 32.3 46.6 58.6 86 58.6 27.5 0 49-12 65.7-31.1 6-7.2 13.1-15.5 20.3-27.5 57.4-93.2 257-398 492.4-572.5 33.4-26.2 57.3-44.1 57.3-81.2z" fill="#fff"/>
 </g>
 <style class="darkreader darkreader--fallback">html, body, body :not(iframe) {
    background-color: #181a1b !important;
    border-color: #776e62 !important;
    color: #e8e6e3 !important;
}</style>
 <g fill="#fff">
  <g transform="matrix(.0077642 0 0 .0077642 221.19 171.06)">
   <path d="m990 182.1c0-44.2-33.5-76.5-77.7-76.5-23.9 0-45.4 14.3-45.4 14.3-205.5 110-533 481.6-533 481.6-23.9-20.2-169.7-154.1-169.7-154.1h-1.2l-1.2-1.2c-19.1-14.3-38.2-25.1-62.1-25.1-50.2 0-89.6 40.6-89.6 89.6 0 27.5 19.1 55 32.3 68.1 92 88.4 192.4 206.8 225.9 257 21.5 32.3 46.6 58.6 86 58.6 27.5 0 49-12 65.7-31.1 6-7.2 13.1-15.5 20.3-27.5 57.4-93.2 257-398 492.4-572.5 33.4-26.2 57.3-44.1 57.3-81.2z" fill="#fff"/>
  </g>
  <g transform="matrix(.0077642 0 0 .0077642 242.31 171.06)">
   <path d="m990 182.1c0-44.2-33.5-76.5-77.7-76.5-23.9 0-45.4 14.3-45.4 14.3-205.5 110-533 481.6-533 481.6-23.9-20.2-169.7-154.1-169.7-154.1h-1.2l-1.2-1.2c-19.1-14.3-38.2-25.1-62.1-25.1-50.2 0-89.6 40.6-89.6 89.6 0 27.5 19.1 55 32.3 68.1 92 88.4 192.4 206.8 225.9 257 21.5 32.3 46.6 58.6 86 58.6 27.5 0 49-12 65.7-31.1 6-7.2 13.1-15.5 20.3-27.5 57.4-93.2 257-398 492.4-572.5 33.4-26.2 57.3-44.1 57.3-81.2z" fill="#fff"/>
  </g>
  <g transform="matrix(.0077642 0 0 .0077642 262.36 171.06)">
   <path d="m990 182.1c0-44.2-33.5-76.5-77.7-76.5-23.9 0-45.4 14.3-45.4 14.3-205.5 110-533 481.6-533 481.6-23.9-20.2-169.7-154.1-169.7-154.1h-1.2l-1.2-1.2c-19.1-14.3-38.2-25.1-62.1-25.1-50.2 0-89.6 40.6-89.6 89.6 0 27.5 19.1 55 32.3 68.1 92 88.4 192.4 206.8 225.9 257 21.5 32.3 46.6 58.6 86 58.6 27.5 0 49-12 65.7-31.1 6-7.2 13.1-15.5 20.3-27.5 57.4-93.2 257-398 492.4-572.5 33.4-26.2 57.3-44.1 57.3-81.2z" fill="#fff"/>
  </g>
 </g>
 <path d="m180.64 185.67h34.803c2.2079 0 3.9853 3.5355 3.9853 7.9272 0 4.3917-1.7774 7.9272-3.9853 7.9272h-34.803c-2.2079 0-3.9853-3.5355-3.9853-7.9272 0-4.3916 1.7774-7.9272 3.9853-7.9272z" fill="#1a1a1a" stroke-width="3.7272"/>
 <path d="m183.39 208.44h0.78406c2.3983 0 4.329 1.9307 4.329 4.329 0 2.3983-1.9307 4.329-4.329 4.329h-0.78406c-2.3983 0-4.329-1.9307-4.329-4.329 0-2.3983 1.9307-4.329 4.329-4.329z" fill="#257cfd" stroke="#000" stroke-width=".1837"/>
 <path d="m193.46 209.34h14.135c1.8213 0 3.2876 1.3787 3.2876 3.0912v0.66704c0 1.7125-1.4663 3.0912-3.2876 3.0912h-14.135c-1.8213 0-3.2876-1.3787-3.2876-3.0912v-0.66704c0-1.7125 1.4663-3.0912 3.2876-3.0912z" fill="#1a1a1a" stroke-width="1.7047"/>
 <path d="m220.29 208.44h0.78406c2.3983 0 4.329 1.9307 4.329 4.329 0 2.3983-1.9307 4.329-4.329 4.329h-0.78406c-2.3983 0-4.329-1.9307-4.329-4.329 0-2.3983 1.9307-4.329 4.329-4.329z" fill="#fff" stroke="#000" stroke-width=".1837"/>
 <path d="m230.36 209.34h14.135c1.8213 0 3.2876 1.3787 3.2876 3.0912v0.66704c0 1.7125-1.4663 3.0912-3.2876 3.0912h-14.135c-1.8213 0-3.2876-1.3787-3.2876-3.0912v-0.66704c0-1.7125 1.4663-3.0912 3.2876-3.0912z" fill="#1a1a1a" stroke-width="1.7047"/>
 <path d="m183.7 209.75h0.15714c1.6732 0 3.0201 1.347 3.0201 3.0201s-1.347 3.0201-3.0201 3.0201h-0.15714c-1.6732 0-3.0201-1.347-3.0201-3.0201s1.347-3.0201 3.0201-3.0201z" fill="#fff" stroke="#000" stroke-width=".12431"/>
 <path d="m179.34 237.13h37.392c1.4906 0 2.6906 1.2 2.6906 2.6906v10.473c0 1.4906-1.2 2.6906-2.6906 2.6906h-37.392c-1.4906 0-2.6906-1.2-2.6906-2.6906v-10.473c0-1.4906 1.2-2.6906 2.6906-2.6906z" fill="#257cfd" stroke-width="3.7272"/>
 <g transform="matrix(.87017 0 0 .87017 340.44 -24.974)" fill="#000" font-size="21.333px" style="line-height:1.25;shape-inside:url(#rect4582);white-space:pre" aria-label="Semester 2019">
  <g font-family="Poppins">
   <path d="m-181.9 86.582q-1.472 0-2.6453-0.512-1.152-0.53333-1.8133-1.4507-0.66133-0.93866-0.68266-2.1547h2.0693q0.10667 1.0453 0.85333 1.7707 0.768 0.704 2.2187 0.704 1.3867 0 2.176-0.68267 0.81067-0.704 0.81067-1.792 0-0.85333-0.46934-1.3867-0.46933-0.53333-1.1733-0.81067t-1.8987-0.59733q-1.472-0.384-2.368-0.768-0.87466-0.384-1.5147-1.1947-0.61867-0.832-0.61867-2.2187 0-1.216 0.61867-2.1547 0.61866-0.93866 1.728-1.4507 1.1307-0.512 2.5813-0.512 2.0907 0 3.4133 1.0453 1.344 1.0453 1.5147 2.7733h-2.1333q-0.10667-0.85333-0.896-1.4933-0.78933-0.66133-2.0907-0.66133-1.216 0-1.984 0.64-0.768 0.61866-0.768 1.7493 0 0.81067 0.448 1.3227 0.46933 0.512 1.1307 0.78933 0.68267 0.256 1.8987 0.59733 1.472 0.40533 2.368 0.81067 0.896 0.384 1.536 1.216 0.64 0.81066 0.64 2.2187 0 1.088-0.576 2.048-0.576 0.96-1.7067 1.5573-1.1307 0.59733-2.6667 0.59733z"/>
   <path d="m-163.42 80.139q0 0.55466-0.064 1.1733h-9.344q0.10667 1.728 1.1733 2.7093 1.088 0.96 2.624 0.96 1.2587 0 2.0907-0.576 0.85333-0.59733 1.1947-1.5787h2.0907q-0.46933 1.6853-1.8773 2.752-1.408 1.0453-3.4987 1.0453-1.664 0-2.9867-0.74667-1.3013-0.74666-2.048-2.112-0.74666-1.3867-0.74666-3.2 0-1.8133 0.72533-3.1787t2.0267-2.0907q1.3227-0.74667 3.0293-0.74667 1.664 0 2.944 0.72533t1.9627 2.0053q0.704 1.2587 0.704 2.8587zm-2.0053-0.40533q0-1.1093-0.49067-1.8987-0.49066-0.81066-1.344-1.216-0.832-0.42667-1.856-0.42667-1.472 0-2.5173 0.93866-1.024 0.93866-1.1733 2.6027z"/>
   <path d="m-146.81 74.529q1.3653 0 2.432 0.576 1.0667 0.55467 1.6853 1.6853 0.61866 1.1307 0.61866 2.752v6.8907h-1.92v-6.6133q0-1.7493-0.87466-2.6667-0.85333-0.93867-2.3253-0.93867-1.5147 0-2.4107 0.98133-0.896 0.96-0.896 2.7947v6.4427h-1.92v-6.6133q0-1.7493-0.87466-2.6667-0.85334-0.93867-2.3253-0.93867-1.5147 0-2.4107 0.98133-0.896 0.96-0.896 2.7947v6.4427h-1.9413v-11.691h1.9413v1.6853q0.576-0.91733 1.536-1.408 0.98133-0.49067 2.1547-0.49067 1.472 0 2.6027 0.66133 1.1307 0.66133 1.6853 1.9413 0.49066-1.2373 1.6213-1.92 1.1307-0.68266 2.5173-0.68266z"/>
   <path d="m-128.22 80.139q0 0.55466-0.064 1.1733h-9.344q0.10667 1.728 1.1733 2.7093 1.088 0.96 2.624 0.96 1.2587 0 2.0907-0.576 0.85333-0.59733 1.1947-1.5787h2.0907q-0.46933 1.6853-1.8773 2.752-1.408 1.0453-3.4987 1.0453-1.664 0-2.9867-0.74667-1.3013-0.74666-2.048-2.112-0.74667-1.3867-0.74667-3.2 0-1.8133 0.72534-3.1787 0.72533-1.3653 2.0267-2.0907 1.3227-0.74667 3.0293-0.74667 1.664 0 2.944 0.72533 1.28 0.72533 1.9627 2.0053 0.704 1.2587 0.704 2.8587zm-2.0053-0.40533q0-1.1093-0.49067-1.8987-0.49067-0.81066-1.344-1.216-0.832-0.42667-1.856-0.42667-1.472 0-2.5173 0.93866-1.024 0.93866-1.1733 2.6027z"/>
   <path d="m-121.53 86.625q-1.344 0-2.4107-0.448-1.0667-0.46933-1.6853-1.28-0.61866-0.832-0.68266-1.8987h2.0053q0.0853 0.87466 0.81066 1.4293 0.74667 0.55467 1.9413 0.55467 1.1093 0 1.7493-0.49067 0.63999-0.49067 0.63999-1.2373 0-0.768-0.68266-1.1307-0.68267-0.384-2.112-0.74666-1.3013-0.34133-2.1333-0.68267-0.81066-0.36267-1.408-1.0453-0.57599-0.704-0.57599-1.8347 0-0.896 0.53333-1.6427 0.53333-0.74667 1.5147-1.1733 0.98133-0.448 2.24-0.448 1.9413 0 3.136 0.98133 1.1947 0.98133 1.28 2.688h-1.9413q-0.064-0.91733-0.74666-1.472-0.66134-0.55467-1.792-0.55467-1.0453 0-1.664 0.448-0.61866 0.448-0.61866 1.1733 0 0.576 0.36266 0.96 0.384 0.36267 0.93867 0.59733 0.576 0.21333 1.5787 0.49067 1.2587 0.34133 2.048 0.68266 0.78933 0.32 1.344 0.98133 0.576 0.66133 0.59733 1.728 0 0.96-0.53333 1.728-0.53334 0.768-1.5147 1.216-0.96 0.42667-2.2187 0.42667z"/>
   <path d="m-112.16 76.342v6.8907q0 0.85333 0.36267 1.216 0.36266 0.34133 1.2587 0.34133h1.4293v1.6427h-1.7493q-1.6213 0-2.432-0.74667-0.81067-0.74666-0.81067-2.4533v-6.8907h-1.5147v-1.6h1.5147v-2.944h1.9413v2.944h3.0507v1.6z"/>
   <path d="m-96.096 80.139q0 0.55466-0.064 1.1733h-9.344q0.10666 1.728 1.1733 2.7093 1.088 0.96 2.624 0.96 1.2587 0 2.0907-0.576 0.85333-0.59733 1.1947-1.5787h2.0907q-0.46933 1.6853-1.8773 2.752-1.408 1.0453-3.4987 1.0453-1.664 0-2.9867-0.74667-1.3013-0.74666-2.048-2.112-0.74667-1.3867-0.74667-3.2 0-1.8133 0.72533-3.1787 0.72534-1.3653 2.0267-2.0907 1.3227-0.74667 3.0293-0.74667 1.664 0 2.944 0.72533 1.28 0.72533 1.9627 2.0053 0.704 1.2587 0.704 2.8587zm-2.0053-0.40533q0-1.1093-0.49067-1.8987-0.49067-0.81066-1.344-1.216-0.832-0.42667-1.856-0.42667-1.472 0-2.5173 0.93866-1.024 0.93866-1.1733 2.6027z"/>
   <path d="m-91.595 76.641q0.512-1.0027 1.4507-1.5573 0.96-0.55467 2.3253-0.55467v2.0053h-0.512q-3.264 0-3.264 3.5413v6.3573h-1.9413v-11.691h1.9413z"/>
   <path d="m-80.437 84.875q2.7093-2.176 4.2453-3.5627 1.536-1.408 2.5813-2.9227 1.0667-1.536 1.0667-3.008 0-1.3867-0.68267-2.176-0.66133-0.81066-2.1547-0.81066-1.4507 0-2.2613 0.91733-0.78933 0.896-0.85333 2.4107h-1.8773q0.08533-2.3893 1.4507-3.6907 1.3653-1.3013 3.52-1.3013 2.1973 0 3.4773 1.216 1.3013 1.216 1.3013 3.3493 0 1.7707-1.0667 3.456-1.0453 1.664-2.3893 2.944-1.344 1.2587-3.4347 2.944h7.3387v1.6213h-10.261z"/>
   <path d="m-67.936 78.561q0-3.6693 1.1947-5.7173 1.1947-2.0693 4.1813-2.0693 2.9653 0 4.16 2.0693 1.1947 2.048 1.1947 5.7173 0 3.7333-1.1947 5.8027t-4.16 2.0693q-2.9867 0-4.1813-2.0693-1.1947-2.0693-1.1947-5.8027zm8.8107 0q0-1.856-0.256-3.136-0.23467-1.3013-1.0027-2.0907-0.74667-0.78933-2.176-0.78933-1.4507 0-2.2187 0.78933-0.74666 0.78933-1.0027 2.0907-0.23467 1.28-0.23467 3.136 0 1.92 0.23467 3.2213 0.256 1.3013 1.0027 2.0907 0.768 0.78933 2.2187 0.78933 1.4293 0 2.176-0.78933 0.768-0.78933 1.0027-2.0907 0.256-1.3013 0.256-3.2213z"/>
   <path d="m-55.051 72.779v-1.7707h4.0107v15.424h-1.9627v-13.653z"/>
   <path d="m-45.216 82.294q0.21333 1.216 0.98133 1.8773 0.78933 0.66133 2.112 0.66133 1.7707 0 2.6027-1.3867 0.85333-1.3867 0.81067-4.672-0.448 0.96-1.4933 1.5147-1.0453 0.53333-2.3253 0.53333-1.4293 0-2.56-0.576-1.1093-0.59733-1.7493-1.728t-0.64-2.7307q0-2.2827 1.3227-3.6693 1.3227-1.408 3.7547-1.408 2.9867 0 4.1813 1.9413 1.216 1.9413 1.216 5.7813 0 2.688-0.49067 4.4373-0.46933 1.7493-1.6213 2.6667-1.1307 0.91733-3.1147 0.91733-2.176 0-3.392-1.1733-1.216-1.1733-1.3867-2.9867zm3.008-3.1147q1.4293 0 2.3467-0.87466 0.91733-0.896 0.91733-2.4107 0-1.6-0.896-2.5813-0.896-0.98133-2.5173-0.98133-1.4933 0-2.3893 0.93866-0.87466 0.93866-0.87466 2.4747 0 1.5573 0.87466 2.496t2.5387 0.93866z"/>
  </g>
 </g>
 <path d="m180.92 223.79h5.7173c1.0318 0 1.8624 0.83062 1.8624 1.8624v4.9333c0 1.0318-0.83062 1.8624-1.8624 1.8624h-5.7173c-1.0318 0-1.8624-0.83061-1.8624-1.8624v-4.9333c0-1.0318 0.83061-1.8624 1.8624-1.8624z" fill="#fff" stroke="#000" stroke-width=".1837"/>
 <path d="m198.57 224.69h3.7631c4.605 0 8.3122 1.3787 8.3122 3.0912v0.66704c0 1.7125-3.7072 3.0912-8.3122 3.0912h-3.7631c-4.605 0-8.3122-1.3787-8.3122-3.0912v-0.66704c0-1.7125 3.7072-3.0912 8.3122-3.0912z" fill="#1a1a1a" stroke-width="1.6914"/>
</svg>
